<svg width="385" height="512" viewBox="0 0 385 512" fill="none" xmlns="http://www.w3.org/2000/svg">
<path d="M285.598 0.316017C284.844 0.687099 282.95 2.6662 281.71 4.39791C280.638 5.89991 276.566 12.4203 275.209 14.8235C274.857 15.4597 274.354 16.2548 274.103 16.5906C273.483 17.4388 270.768 22.4749 269.093 25.8676C268.322 27.4226 267.149 29.7198 266.496 30.9921C264.803 34.2081 260.664 43.0257 260.028 44.7574C259.743 45.5349 259.156 47.0546 258.704 48.1325C256.961 52.3734 256.006 56.4023 256.509 57.3919C257.011 58.3814 259.776 61.3854 260.966 62.2336C262.156 63.0818 264.669 65.2023 266.998 67.305C267.92 68.1356 269.361 69.3548 270.182 70.0263C271.975 71.4753 272.963 72.3765 275.025 74.3556C275.862 75.1684 276.968 76.158 277.471 76.5467C277.974 76.9532 278.996 77.8014 279.733 78.4552C280.47 79.0913 282.28 80.5226 283.755 81.6182C285.229 82.7138 286.67 83.827 286.938 84.0921C287.676 84.7989 289.1 85.7354 290.859 86.672C292.351 87.4671 292.451 87.5025 292.87 87.2551C293.607 86.8133 293.658 86.4246 293.524 82.06C293.473 79.8158 293.373 74.1435 293.323 69.4255C293.272 64.7075 293.105 57.9573 292.971 54.4056C292.837 50.8538 292.636 45.6056 292.535 42.743C292.217 33.4306 291.932 28.7833 291.295 22.2452C291.161 20.8315 290.96 18.4813 290.876 17.0324C290.625 12.8798 290.373 10.2645 290.122 8.7272C288.916 1.62364 288.681 0.793122 287.642 0.280676C286.888 -0.108076 286.436 -0.090405 285.598 0.316017ZM285.581 20.9199C285.732 23.058 285.983 25.956 286.117 27.3696C286.268 28.7833 286.436 32.6001 286.519 35.8515C286.62 40.1631 286.788 42.9197 287.106 46.012C287.491 49.6522 287.575 51.4899 287.709 58.9999C287.944 72.5885 287.944 73.2777 287.826 73.4014C287.759 73.4721 287.391 73.2954 286.989 72.995C286.586 72.7122 285.782 72.2175 285.179 71.8994C284.576 71.5813 283.453 70.8392 282.682 70.256C280.604 68.6657 275.561 64.4071 274.203 63.0995C273.567 62.4633 272.092 61.138 270.936 60.1485C267.317 57.0031 264.317 54.0521 264.334 53.628C264.367 53.0096 265.725 49.8466 268.255 44.4217C277.806 23.9415 280.789 17.8275 283.755 12.544L285.095 10.1762L285.196 13.6043C285.263 15.495 285.43 18.7817 285.581 20.9199Z" fill="black"/>
<path d="M135.955 40.0787C135.318 40.4851 135 40.9799 134.212 42.8177C133.592 44.2843 132.336 46.8289 130.626 50.0979C130.107 51.1228 129.336 52.8015 128.934 53.8441C128.515 54.8866 127.644 56.9718 126.973 58.4738C125.465 61.9195 124.376 64.6408 121.544 71.9917C120.304 75.1901 118.796 79.0953 118.193 80.6503C117.087 83.4422 115.294 88.443 113.954 92.4012C111.658 99.2574 110.871 101.714 110.401 103.445C110.116 104.506 109.614 106.061 109.279 106.891C108.944 107.722 108.273 109.665 107.787 111.22C107.318 112.775 106.815 114.295 106.698 114.613C106.531 115.037 106.531 115.267 106.681 115.62C107.017 116.398 107.519 116.592 109.731 116.787C110.887 116.893 112.663 117.052 113.669 117.14C114.691 117.228 117.707 117.44 120.371 117.599C125.918 117.917 127.409 118.059 129.755 118.536C130.677 118.73 133.09 119.084 135.117 119.349C139.775 119.932 142.507 120.391 144.836 120.939C145.858 121.187 147.651 121.558 148.841 121.77C150.784 122.105 151.086 122.123 151.689 121.893C152.979 121.416 153.482 120.056 153.164 117.847C153.046 117.122 152.845 115.673 152.711 114.631C152.527 113.376 152.125 111.75 151.522 109.86C150.533 106.785 149.058 101.077 148.355 97.614C148.12 96.4478 147.467 92.79 146.914 89.4856C146.361 86.1812 145.724 82.3643 145.489 81.0037C145.255 79.6431 144.853 76.9572 144.584 75.0487C144.3 73.1226 143.847 70.3837 143.579 68.9524C142.389 62.7677 141.92 59.3396 141.652 54.9397C141.267 48.1895 141.066 47.0233 139.558 42.747C139.038 41.298 138.753 40.7679 138.267 40.3084C137.547 39.637 136.742 39.5663 135.955 40.0787ZM135.854 59.4456C136.29 67.6271 139.524 92.0478 141.501 101.89C141.82 103.516 142.155 105.689 142.255 106.714C142.456 109.082 142.674 110.266 143.177 111.556L143.562 112.581L143.194 112.475C141.3 111.927 129.688 110.107 126.152 109.807C125.465 109.754 124.158 109.542 123.237 109.347C122.332 109.153 121.494 109.029 121.36 109.082C121.243 109.135 121.092 109.1 121.042 109.012C120.975 108.905 119.953 108.835 118.729 108.835C117.506 108.835 116.417 108.764 116.283 108.676C116.099 108.552 116.233 107.881 117.07 104.912C117.64 102.951 118.21 100.812 118.344 100.176C119.098 96.5184 120.941 89.998 122.583 85.2446C124.376 80.0142 125.717 76.6744 128.666 70.1363C130.626 65.7717 131.23 64.3227 131.749 62.5557C132.369 60.4882 132.905 59.1983 134.246 56.53L135.452 54.1622L135.57 55.028C135.62 55.5228 135.754 57.5019 135.854 59.4456Z" fill="black"/>
<path d="M253.588 91.1074C251.226 91.6375 249.098 92.8568 246.383 95.26C238.541 102.169 233.129 111.499 226.242 129.947C220.159 146.275 216.54 159.917 215.065 172.18C213.641 183.913 213.608 199.87 214.965 215.031C215.417 219.89 215.501 219.378 214.244 219.519C212.636 219.678 209.234 220.473 207.676 221.021C206.905 221.286 204.944 222.294 203.302 223.248C201.643 224.202 199.549 225.421 198.627 225.951C195.092 227.983 190.752 230.987 189.495 232.26C188.992 232.772 187.518 234.044 186.227 235.087C184.937 236.13 183.044 237.844 182.022 238.869C180.999 239.893 179.106 241.749 177.816 243.003C176.308 244.435 175.034 245.831 174.297 246.891C172.705 249.1 170.292 252.74 169.689 253.818C169.421 254.295 169.035 254.949 168.834 255.267C168.214 256.221 166.069 259.914 164.997 261.858C163.908 263.872 161.964 267.353 159.618 271.453C157.339 275.482 152.966 284.724 152.178 287.215C151.508 289.265 150.469 292.075 149.078 295.609C148.71 296.528 148.123 298.083 147.771 299.054C146.113 303.719 143.197 311.035 142.493 312.325C142.275 312.714 141.856 313.668 141.572 314.445C140.097 318.351 138.455 321.991 136.628 325.384C136.059 326.444 134.768 328.882 133.78 330.773C132.774 332.664 131.568 334.82 131.099 335.544C130.63 336.269 129.976 337.346 129.674 337.93C127.932 341.252 122.201 350.741 121.782 351.023C121.631 351.112 121.179 351.836 119.453 354.717C116.219 360.106 115.616 361.043 114.275 362.562C113.488 363.481 112.248 364.966 111.51 365.884C110.79 366.803 108.679 369.03 106.835 370.85C104.992 372.67 102.529 375.108 101.373 376.257C100.217 377.406 98.9934 378.572 98.6583 378.819C97.8875 379.42 94.687 382.512 93.4302 383.873C91.1514 386.347 85.1693 394.458 83.3764 397.479C82.0023 399.83 80.2932 403.081 79.9245 404.053C79.757 404.512 79.3716 405.449 79.07 406.138C77.7797 409.089 76.3889 416.122 76.0035 421.688C75.7354 425.646 75.7522 431.725 76.037 433.439C76.4392 435.86 77.8635 441.797 78.6175 444.253C79.0365 445.579 79.9245 448.035 80.5948 449.731C81.2483 451.41 81.9688 453.301 82.1699 453.937C82.371 454.573 83.2758 456.552 84.1807 458.354C85.0855 460.157 86.7109 463.408 87.7833 465.599C93.0784 476.414 97.7366 483.782 102.697 489.172C105.143 491.822 109.701 495.887 113.756 499.014C116.336 501.011 123.223 505.075 127.329 507.037C133.897 510.164 146.716 512.532 153.72 511.896C159.216 511.401 164.209 510.765 165.449 510.394C165.919 510.27 167.125 509.988 168.13 509.793C169.153 509.581 171.029 509.104 172.32 508.715C177.363 507.196 179.692 506.807 186.697 506.33C190.165 506.083 191.455 505.906 195.779 505.058C202.163 503.821 202.9 503.715 207.726 503.149C209.904 502.884 212.301 502.566 213.038 502.425C213.775 502.283 216.272 502.089 218.567 502.001C220.88 501.912 224.382 501.736 226.359 501.612C228.336 501.506 233.213 501.4 237.167 501.4C244.121 501.382 244.49 501.4 247.724 501.859C253.706 502.725 257.845 503.043 266.742 503.326C271.786 503.503 275.07 503.962 281.404 505.446C287.537 506.86 289.598 507.125 295.898 507.249C301.395 507.355 303.305 507.125 307.879 505.8C313.811 504.086 317.699 502.478 322.189 499.862C326.362 497.424 329.026 495.25 333.466 490.674C335.829 488.2 336.265 487.67 337.974 484.949C344.04 475.318 346.972 468.833 349.016 460.563C350.323 455.227 350.793 451.392 350.759 445.897C350.726 441.832 350.457 439.005 349.687 434.764C349.419 433.298 349.117 431.513 349.016 430.788C347.91 423.013 346.335 416.687 344.408 412.323C343.973 411.351 343.403 409.99 343.152 409.319C340.672 402.798 338.208 398.451 334.991 394.988C331.372 391.047 324.77 384.933 321.217 382.194C316.492 378.572 312.219 375.144 310.644 373.677C308.298 371.521 301.931 364.771 300.674 363.11C300.121 362.386 299.099 361.06 298.395 360.194C297.691 359.311 296.418 357.65 295.563 356.484C294.709 355.317 293.368 353.568 292.581 352.561C291.341 351.023 290.888 350.246 289.347 347.048C286.85 341.87 285.643 338.848 284.923 336.074C284.588 334.767 284.169 333.123 284.001 332.452C283.633 331.02 282.208 324.341 281.907 322.645C281.304 319.27 280.667 315.576 280.566 314.87C280.516 314.428 280.281 313.085 280.064 311.866C279.628 309.462 278.891 304.462 278.723 302.765C278.623 301.74 278.086 298.259 277.215 292.958C276.997 291.544 276.612 289.565 276.377 288.54C275.925 286.579 275.187 282.868 274.953 281.384C274.869 280.889 274.718 279.422 274.618 278.115C274.517 276.807 274.316 274.952 274.182 273.998L273.914 272.248L274.986 271.082C275.573 270.428 276.612 269.174 277.299 268.308C277.969 267.424 279.041 266.081 279.645 265.304C281.572 262.883 284.37 258.854 285.493 256.91C286.079 255.885 287.185 253.977 287.939 252.669C288.71 251.362 289.531 249.842 289.782 249.312C290.034 248.782 290.754 247.421 291.391 246.308C295.178 239.628 297.943 228.425 299.283 214.236C299.635 210.454 299.669 209.412 299.652 199.393C299.635 187.359 299.501 184.426 298.512 175.007C297.959 169.812 296.669 162.408 295.396 157.072C295.01 155.464 294.508 152.795 294.29 151.152C293.368 144.331 292.815 142.016 289.447 130.954C287.252 123.745 286.917 122.826 284.286 116.73C282.527 112.701 281.488 110.757 278.421 105.827C276.293 102.399 270.931 96.4793 267.111 93.3162C265.871 92.2913 264.044 91.3901 262.637 91.0721C261.028 90.7187 255.214 90.7363 253.588 91.1074ZM259.403 98.8294C263.575 101.162 265.15 102.523 268.167 106.304C273.579 113.125 276.494 119.592 279.444 131.361C281.253 138.517 283.867 150.18 285.007 156.1C285.375 158.043 285.878 160.429 286.096 161.401C286.816 164.529 287.705 169.812 287.872 172.003C288.073 174.689 288.257 176.226 288.693 178.983C289.028 181.192 289.229 182.959 289.883 189.762C290.067 191.759 290.302 193.897 290.369 194.533C290.453 195.169 290.603 199.693 290.721 204.605C290.972 216.18 290.721 220.42 289.38 226.923C287.587 235.582 281.739 247.333 274.366 257.087C273.512 258.2 272.523 259.472 272.155 259.896L271.484 260.692L270.948 259.278C269.641 255.974 266.189 250.566 263.29 247.315C262 245.866 259.688 243.074 257.392 240.158C255.733 238.056 250.974 233.037 249.651 231.977L248.545 231.111L248.243 229.574C247.539 226.022 245.981 221.004 245.126 219.519C244.674 218.759 243.819 218.212 243.099 218.212C241.038 218.229 239.781 220.367 239.731 223.99L239.697 225.792L238.927 225.333C237.787 224.626 235.525 223.389 235.089 223.248C234.871 223.177 233.682 222.541 232.425 221.834C231.152 221.127 229.375 220.297 228.454 219.961C226.979 219.466 226.527 219.378 224.684 219.325L222.589 219.272L222.388 218.176C222.271 217.558 222.103 216.621 222.019 216.091C221.935 215.561 221.734 214.395 221.584 213.529C221.45 212.645 221.248 211.02 221.165 209.906C220.478 201.672 220.427 200.258 220.427 193.561C220.444 186.193 220.427 186.564 221.768 174.654C222.036 172.198 222.69 168.328 223.594 163.61C223.896 162.002 224.281 159.899 224.449 158.927C224.885 156.17 227.381 145.833 228.454 142.317C230.33 136.114 232.693 129.7 234.553 125.706C235.106 124.54 236.547 121.395 237.77 118.726C240.099 113.602 240.669 112.489 242.412 109.626C244.791 105.756 245.746 104.572 248.176 102.381C250.204 100.561 251.444 99.713 253.237 98.9178C254.678 98.2817 254.862 98.2463 256.554 98.2286C258.263 98.2286 258.381 98.2463 259.403 98.8294ZM223.963 231.924C226.393 232.295 229.509 233.267 231.302 234.204C232.978 235.069 237.368 238.091 239.178 239.611L240.351 240.6L240.736 242.261C240.937 243.18 241.256 244.717 241.423 245.689C242.295 250.319 243.35 253.606 246.014 259.826C248.076 264.632 251.628 270.039 254.074 272.089C255.18 273.026 258.699 275.005 260.375 275.659C260.944 275.871 261.464 276.171 261.531 276.33C261.615 276.489 261.715 277.373 261.782 278.292C261.849 279.21 262.034 280.96 262.218 282.179C262.386 283.398 262.654 285.625 262.804 287.127C263.207 291.315 264.162 297.34 264.899 300.291C265.268 301.74 265.754 303.931 265.988 305.151C266.223 306.37 266.642 308.225 266.91 309.303C267.63 312.095 268.368 315.559 268.669 317.608C269.272 321.637 269.691 323.705 270.68 327.681C270.998 328.935 271.551 331.215 271.92 332.717C272.674 335.774 273.311 337.788 275.271 343.301C277.55 349.645 277.634 349.822 281.052 355.6C283.465 359.664 284.906 361.856 286.515 363.888C287.336 364.966 288.023 365.884 288.023 365.973C288.023 366.167 291.977 370.708 292.43 371.027C292.631 371.186 293.284 371.786 293.888 372.387C294.491 372.988 295.396 373.801 295.898 374.19C296.401 374.578 296.971 375.091 297.155 375.303C297.339 375.515 297.976 376.116 298.579 376.628C299.183 377.141 300.59 378.484 301.73 379.614C303.824 381.664 305.433 382.919 307.863 384.332C308.583 384.757 309.756 385.622 310.443 386.259C312.856 388.432 314.582 389.863 316.174 390.977C320.899 394.263 321.653 394.899 324.535 397.921C325.725 399.158 326.261 399.918 327.518 402.162C328.372 403.664 329.445 405.767 329.914 406.827C330.383 407.887 331.255 409.672 331.841 410.803C332.964 412.941 333.734 415.15 334.254 417.588C334.438 418.384 334.907 420.469 335.326 422.218C335.745 423.967 336.164 425.947 336.265 426.636C336.382 427.307 336.617 428.827 336.801 429.993C337.354 433.474 337.639 435.771 338.108 440.33C338.208 441.249 338.292 444.801 338.292 448.211C338.292 453.371 338.242 454.856 337.957 457.223C337.32 462.56 337.052 463.938 336.449 464.945C336.147 465.458 335.343 466.836 334.673 468.038C332.495 471.872 329.646 475.618 325.708 479.771C324.25 481.308 322.994 482.687 322.91 482.846C322.826 483.005 322.038 483.8 321.184 484.613C319.508 486.185 317.732 487.281 315.554 488.112C314.883 488.359 313.962 488.765 313.509 489.013C311.817 489.896 308.533 490.709 305.198 491.045C302.919 491.257 294.122 491.275 292.296 491.063C291.559 490.974 289.598 490.815 287.939 490.691C285.292 490.532 282.895 490.161 280.985 489.614C280.667 489.525 279.578 489.296 278.556 489.119C277.55 488.924 275.891 488.571 274.869 488.341C273.864 488.094 272.691 487.847 272.272 487.776C271.853 487.705 269.943 487.299 267.999 486.875C265.1 486.221 263.977 486.062 261.631 485.92C258.85 485.779 238.742 485.973 238.474 486.15C238.39 486.203 236.145 486.415 233.481 486.61C224.901 487.263 224.03 487.334 222.204 487.599C221.215 487.74 219.288 487.97 217.897 488.129C215.3 488.394 212.602 488.73 209.268 489.207C208.212 489.349 206.067 489.79 204.492 490.161C201.878 490.797 201.325 490.868 197.706 491.045C192.578 491.292 190.299 491.487 186.311 492.034C180.949 492.759 174.381 494.314 170.376 495.834C162.97 498.626 154.826 500.075 149.363 499.544C148.257 499.438 145.727 499.226 143.75 499.085C137.382 498.59 137.919 498.714 134.45 496.894C132.791 496.01 130.596 494.756 129.574 494.12C128.569 493.466 127.077 492.547 126.239 492.07C125.418 491.593 124.664 491.098 124.564 490.974C124.48 490.851 123.676 490.214 122.804 489.543C118.314 486.15 115.482 483.606 112.75 480.549C110.455 477.969 108.93 475.813 106.249 471.342C101.44 463.249 98.4069 456.87 94.2513 445.914C92.3243 440.878 91.8551 439.482 90.6152 435.206C89.3919 430.912 89.2746 430.347 89.1741 427.431C89.0736 424.586 89.3082 422.2 89.8946 420.009C90.6654 417.164 94.2346 408.912 95.4075 407.287C95.7929 406.756 96.5637 405.59 97.1334 404.724C98.5912 402.462 100.116 400.501 102.63 397.638C103.836 396.278 106.333 393.168 108.193 390.747C110.036 388.326 112.248 385.552 113.086 384.58C113.94 383.608 114.946 382.406 115.331 381.929C121.212 374.578 122.855 372.564 123.743 371.592C124.329 370.956 125.318 369.754 125.938 368.906C126.558 368.076 127.63 366.644 128.3 365.725C133.394 358.887 133.528 358.693 137.031 352.738C139.226 349.009 144.705 337.346 146.146 333.335C147.135 330.596 147.252 330.331 150.871 322.468C152.547 318.828 154.005 315.594 154.105 315.311C155.278 311.936 155.915 310.222 156.317 309.48C157.189 307.837 160.104 301.705 160.473 300.733C160.674 300.203 161.177 298.754 161.595 297.517C162.802 293.948 164.075 290.855 167.108 284.211C169.773 278.362 169.421 279.069 174.129 270.693C175.151 268.891 176.425 266.664 176.978 265.745C177.531 264.827 178.469 263.077 179.039 261.858C180.849 258.112 184.904 252.775 190.014 247.421C198.745 238.303 205.883 233.832 214.211 232.26C217.16 231.712 217.26 231.712 219.975 231.677C221.282 231.659 222.941 231.747 223.963 231.924ZM254.058 251.75C255.8 254.012 257.375 256.433 258.029 257.9C258.783 259.578 259.772 262.512 259.922 263.501C260.006 264.084 259.989 264.137 259.721 263.978C259.554 263.89 258.833 263.166 258.129 262.37C255.7 259.649 253.253 255.214 252.013 251.309C251.628 250.125 251.326 249.117 251.326 249.047C251.326 248.782 253.203 250.655 254.058 251.75Z" fill="black"/>
<path d="M370.218 100.987C369.95 101.128 369.582 101.393 369.414 101.552C369.029 101.923 368.208 103.743 367.37 106.094C366.7 107.984 363.75 120.124 362.929 124.383C362.645 125.796 362.008 128.411 361.488 130.214C360.986 132.016 360.265 134.667 359.913 136.133C358.958 140.092 358.187 142.901 357.249 145.852C356.344 148.733 354.719 155.182 354.719 155.925C354.719 156.826 355.355 157.639 357.333 159.282C358.355 160.13 364.253 164.636 368.124 167.516C370.235 169.107 373.385 171.104 375.564 172.27C377.508 173.295 377.725 173.365 379.032 173.454C380.339 173.524 380.507 173.507 381.362 173.03C382.652 172.323 382.97 171.651 383.372 168.7C384.093 163.311 384.193 155.059 383.707 140.198C383.506 133.73 383.322 131.345 382.601 126.061C381.847 120.477 381.144 116.608 380.406 114.222C379.468 111.147 377.424 107.242 374.977 103.885C372.933 101.057 371.592 100.227 370.218 100.987ZM374.089 113.232C375.564 115.901 376.686 119.841 377.575 125.39C378.412 130.603 378.58 133.536 378.563 141.788C378.563 148.344 378.111 166.562 377.96 166.721C377.759 166.933 371.66 162.675 365.443 157.974C364.019 156.896 362.779 155.995 362.712 155.96C362.628 155.942 362.645 155.589 362.728 155.218C362.829 154.829 363.03 153.627 363.181 152.567C363.332 151.489 363.667 149.81 363.952 148.821C364.22 147.831 364.974 144.863 365.61 142.194C366.264 139.544 367.135 136.098 367.537 134.543C368.342 131.521 370.285 123.216 371.224 118.728C371.777 116.166 372.581 112.508 372.765 111.783C372.9 111.236 373.168 111.518 374.089 113.232Z" fill="black"/>
<path d="M128.246 120.514C125.515 120.903 123.404 121.804 120.539 123.818C118.427 125.285 117.137 126.416 115.026 128.589C113.082 130.604 111.792 132.3 110.485 134.562C110.032 135.322 109.094 136.912 108.373 138.078C105.039 143.574 103.196 147.391 101.118 153.063C100.414 154.989 99.6264 157.021 99.3583 157.569C97.733 160.979 94.8341 169.903 93.9125 174.391C92.706 180.205 91.9688 186.054 91.9688 189.747C91.9688 192.822 92.2369 199.218 92.4882 201.692C92.7898 204.732 94.1136 211.8 95.1357 215.846C98.9897 230.955 100.246 234.612 104.804 243.713C107.77 249.65 108.96 251.541 112.378 255.676C115.344 259.281 117.271 260.959 120.17 262.497C123.756 264.405 125.867 265.023 129.352 265.165C131.782 265.271 131.799 265.271 133.374 264.688C135.854 263.787 136.625 263.274 140.227 260.217C145.07 256.1 147.282 253.608 151.086 247.989C155.71 241.133 158.643 234.772 161.257 225.813C161.776 224.01 162.463 221.66 162.765 220.6C163.552 217.931 165.144 211.005 165.463 208.902C165.597 207.948 165.898 206.128 166.133 204.873C166.703 201.551 166.837 199.855 167.054 192.062C167.289 183.615 167.239 182.184 166.367 174.25C165.865 169.62 164.156 162.782 162.346 158.117C161.877 156.915 161.089 154.812 160.586 153.452C157.101 143.804 153.096 136.541 146.343 127.653C142.925 123.164 140.78 121.397 137.965 120.761C136.524 120.443 129.922 120.266 128.246 120.514ZM135.167 127.847C135.971 128.094 137.261 128.625 138.049 129.013C139.306 129.667 139.725 130.021 141.568 131.964C143.696 134.226 146.997 138.538 148.22 140.641C148.589 141.277 149.393 142.814 150.03 144.086C150.65 145.341 151.722 147.461 152.393 148.769C154.353 152.603 157.118 159.76 157.972 163.206C158.877 166.811 159.933 172.801 160.369 176.6C160.503 177.802 160.586 180.77 160.586 184.287C160.586 189.5 160.553 190.242 160.201 192.398C159.682 195.578 159.229 197.875 158.827 199.483C158.391 201.233 157.235 207.082 156.9 209.22C156.531 211.694 155.358 217.207 154.889 218.744C154.671 219.469 154.32 220.935 154.118 222.013C153.917 223.074 153.649 224.045 153.549 224.134C153.18 224.452 151.856 227.421 150.633 230.672C149.309 234.153 147.265 238.677 145.941 240.974C145.489 241.787 144.5 243.289 143.78 244.331C143.042 245.374 142.171 246.664 141.853 247.212C140.596 249.314 135.267 254.898 132.603 256.913L131.095 258.061H129.252C126.705 258.044 124.594 257.584 123.303 256.754C120.991 255.252 117.288 250.94 115.227 247.318C113.199 243.801 112.596 242.458 110.904 237.687C110.082 235.39 109.044 232.51 108.591 231.29C102.978 216.341 101.788 211.8 100.866 201.869C100.33 196.144 100.984 184.428 102.291 176.264C103.011 171.758 103.397 170.115 105.156 164.407C105.709 162.605 107.703 157.675 109.814 152.833C110.3 151.72 110.904 150.289 111.155 149.652C112.345 146.649 114.69 142.266 116.349 139.934C117.556 138.237 120.254 135.145 121.544 133.996C123.253 132.459 129.872 127.953 131.145 127.458C131.933 127.14 133.273 127.264 135.167 127.847Z" fill="black"/>
<path d="M3.56354 155.733C2.27329 156.333 1.28466 158.595 0.798724 162.129C0.614403 163.437 0.497108 164.568 0.547377 164.639C0.597647 164.727 0.513865 165.928 0.379813 167.342C0.0446839 170.965 -0.139637 186.903 0.128466 191.18C0.363056 195.262 0.597647 198.513 0.815481 200.81C0.899263 201.782 1.06683 203.531 1.15061 204.698C1.43547 208.073 2.23978 213.957 2.72572 216.183C3.34571 219.046 3.54678 219.806 3.69759 219.806C3.79813 219.806 3.83164 219.93 3.78137 220.053C3.61381 220.495 4.6192 223.216 5.08838 223.64C5.45702 223.976 5.72512 224.047 6.64673 224.047H7.78616L8.7748 222.969C9.66289 222.015 13.2488 219.046 15.8795 217.049C16.399 216.661 18.1417 215.547 19.7503 214.593C21.3589 213.639 22.9005 212.685 23.1686 212.49C24.241 211.695 27.6761 209.645 30.6587 208.055C34.2111 206.147 34.8311 205.616 34.8311 204.415C34.8311 203.443 34.6803 203.196 33.39 202.135C31.3792 200.439 26.8383 194.484 22.2302 187.487C17.3709 180.118 16.4157 178.439 13.1817 171.565C11.4726 167.925 9.74667 164.144 9.36127 163.172C8.97587 162.2 8.32237 160.574 7.92022 159.567C7.51806 158.56 7.18293 157.606 7.18293 157.447C7.18293 157.058 6.06025 155.909 5.45702 155.68C4.83703 155.432 4.20028 155.45 3.56354 155.733ZM9.02614 177.132C12.0591 182.274 20.7724 195.968 22.9005 198.955L24.7437 201.517L23.621 202.065C21.7946 202.966 15.2428 207.03 13.7179 208.232C11.9753 209.575 10.8861 210.335 10.8023 210.246C10.6683 210.087 7.66887 191.798 7.36725 189.236C6.91483 185.525 6.71375 182.521 6.5797 177.397C6.49592 173.668 6.51267 173.103 6.71375 173.332C6.8478 173.474 7.8867 175.188 9.02614 177.132Z" fill="black"/>
<path d="M344.337 193.115C342.846 193.451 341.003 194.193 339.712 195.006C338.087 195.995 335.875 198.292 334.685 200.183C334.233 200.908 333.362 202.145 332.758 202.922C329.759 206.721 327.698 210.061 325.788 214.231C323.157 220.009 322.152 223.084 320.208 231.283C318.918 236.761 318.398 239.641 317.761 244.536C317.594 245.755 317.292 248.017 317.074 249.572C315.365 261.482 315.114 264.946 315.214 274.576C315.248 278.322 315.365 281.856 315.466 282.439C315.717 283.941 316.136 287.016 316.253 288.341C316.304 288.96 316.538 290.232 316.773 291.169C316.991 292.105 317.292 293.466 317.426 294.19C317.795 296.24 318.432 298.855 319.085 301.011C319.404 302.089 320.091 304.916 320.61 307.284C321.146 309.652 321.783 312.267 322.034 313.098C322.604 314.953 326.827 324.76 328.083 327.164C328.569 328.118 329.927 330.38 331.049 332.182C335.406 339.074 338.003 341.83 342.511 344.375C345.426 346 347.94 346.672 351.174 346.672C353.536 346.672 354.961 346.371 356.486 345.559C357.122 345.223 357.927 344.852 358.278 344.746C359.267 344.392 361.831 342.537 362.836 341.424C364.344 339.745 367.243 335.257 369.153 331.617C370.293 329.443 373.493 322.357 373.812 321.297C373.929 320.926 374.65 319.035 375.437 317.109C376.208 315.201 377.129 312.78 377.481 311.72C377.85 310.677 378.42 309.069 378.755 308.15C380.296 303.998 381.587 297.937 382.525 290.586C383.497 282.864 383.614 280.725 383.597 271.66C383.581 264.168 383.547 263.073 383.212 260.44C382.726 256.605 381.771 250.562 381.268 248.247C381.05 247.222 380.715 245.508 380.514 244.448C379.894 241.267 376.442 228.809 375.085 224.833C374.348 222.713 373.225 219.921 372.488 218.348C370.963 215.168 367.176 208.93 365.417 206.721C364.763 205.891 363.557 204.389 362.752 203.364C360.055 199.953 355.882 196.331 351.928 193.928L350.554 193.097L347.822 193.027C346.314 192.991 344.739 193.027 344.337 193.115ZM348.275 203.788C349.448 204.371 351.643 205.873 352.95 206.986C353.319 207.304 353.922 207.764 354.29 207.993C356.318 209.336 360.825 218.26 364.395 228.014C367.679 237.026 370.628 246.427 371.382 250.403C372.639 256.923 373.208 261.853 373.41 268.038C373.493 270.918 373.443 271.943 372.991 276.697C372.706 279.665 372.371 284.03 372.22 286.415C371.868 292.317 371.047 299.456 370.109 304.704C369.371 308.786 366.724 315.925 364.545 319.724C363.808 320.979 362.769 323.011 362.216 324.23C361.68 325.45 360.507 327.588 359.619 329.001C358.731 330.415 357.591 332.217 357.106 333.013C356.1 334.603 352.112 338.826 351.425 339.003C350.252 339.321 345.862 336.6 342.578 333.525C339.98 331.086 336.478 325.856 334.183 320.961C331.686 315.625 329.072 306.153 327.748 297.601C327.564 296.452 327.313 294.844 327.162 294.014C326.693 291.257 326.073 284.931 325.62 277.933C325.285 272.809 325.369 261.783 325.788 257.347C326.408 250.809 328.603 236.054 329.759 230.841C330.781 226.159 332.775 221.017 335.339 216.475C336.948 213.648 340.165 208.771 341.405 207.322C343.131 205.29 345.828 203.205 346.75 203.187C346.934 203.187 347.621 203.452 348.275 203.788Z" fill="black"/>
<path d="M42.1384 231.326C41.066 231.574 38.1001 233.199 36.7931 234.242C35.2683 235.479 33.1905 237.741 32.1683 239.349C31.6657 240.109 31.0959 240.939 30.8781 241.186C30.2414 241.929 28.3646 246.099 27.6441 248.378C27.2755 249.562 26.8063 251.506 26.6052 252.708C26.1863 255.288 25.9852 260.341 26.1528 263.787C26.3371 267.286 27.0576 272.534 27.7949 275.732C28.1468 277.287 28.5992 279.426 28.8003 280.503C29.37 283.56 30.9619 290.046 31.917 293.209C33.8105 299.482 39.3904 311.604 43.0433 317.435C46.4281 322.807 48.0702 324.98 52.8291 330.281C57.2695 335.247 59.8668 337.385 63.2181 338.799C67.7758 340.725 70.7082 340.813 73.7579 339.117C75.0649 338.392 75.953 337.35 77.4275 334.717C78.4999 332.808 80.5442 327.984 81.4826 325.157C84.3144 316.516 86.7776 303.387 87.0457 295.382C87.2803 288.667 86.3084 281.935 83.4934 270.52C82.6723 267.198 81.315 262.798 80.5777 261.066C79.6561 258.91 77.1594 254.121 75.9697 252.231C72.4341 246.611 68.5801 242.388 63.5197 238.571C60.1181 235.991 53.4826 232.722 49.4945 231.627C47.9027 231.203 43.479 231.008 42.1384 231.326ZM50.148 238.2C53.3317 239.313 56.7836 241.505 60.47 244.774C65.8321 249.509 69.5185 254.439 72.6017 260.977C76.3551 268.947 79.6729 279.85 80.695 287.501C81.0804 290.523 81.0804 298.669 80.695 302.45C80.2091 307.08 79.4215 311.25 78.4497 314.519C77.7291 316.887 75.7686 320.898 71.7638 328.267C71.3282 329.062 70.6914 330.052 70.3563 330.423C69.8033 331.041 69.6525 331.13 68.9655 331.13C67.7088 331.13 65.3461 329.999 63.2348 328.408C60.7549 326.518 59.4143 325.245 56.8338 322.259C51.5723 316.18 48.3048 311.303 45.607 305.507C43.613 301.196 42.9427 299.552 41.5855 295.435C39.6082 289.445 38.3515 284.214 37.0947 276.881C36.0726 270.82 35.6872 267.162 35.5532 262.303C35.4023 255.818 35.771 253.238 37.6477 247.866C38.4688 245.48 39.2563 244.332 42.3395 240.886L44.7357 238.2L46.1097 237.864C47.6848 237.458 48.1037 237.493 50.148 238.2Z" fill="black"/>
</svg>
