<svg width="512" height="512" viewBox="0 0 512 512" fill="none" xmlns="http://www.w3.org/2000/svg">
<path d="M338.078 31.7773C337.416 32.1027 335.756 33.8383 334.668 35.3569C333.728 36.6741 330.157 42.3922 328.967 44.4997C328.658 45.0575 328.217 45.7549 327.997 46.0493C327.453 46.7931 325.073 51.2095 323.603 54.1848C322.927 55.5485 321.899 57.563 321.326 58.6787C319.842 61.499 316.212 69.2317 315.654 70.7503C315.404 71.4321 314.889 72.7648 314.493 73.7101C312.964 77.4292 312.127 80.9623 312.568 81.8301C313.009 82.6979 315.433 85.3322 316.476 86.076C317.52 86.8199 319.724 88.6794 321.767 90.5235C322.575 91.2518 323.838 92.321 324.559 92.9099C326.131 94.1806 326.998 94.9709 328.805 96.7065C329.54 97.4193 330.51 98.2871 330.951 98.628C331.392 98.9844 332.288 99.7282 332.934 100.302C333.581 100.859 335.168 102.115 336.461 103.075C337.754 104.036 339.018 105.012 339.253 105.245C339.9 105.865 341.149 106.686 342.692 107.507C343.999 108.205 344.088 108.236 344.455 108.019C345.102 107.631 345.146 107.29 345.028 103.463C344.984 101.495 344.896 96.5205 344.852 92.383C344.808 88.2455 344.661 82.326 344.543 79.2112C344.426 76.0965 344.249 71.4941 344.161 68.9837C343.882 60.8172 343.632 56.7417 343.074 51.0081C342.956 49.7684 342.78 47.7074 342.706 46.4367C342.486 42.7951 342.266 40.5017 342.045 39.1535C340.987 32.924 340.781 32.1957 339.87 31.7463C339.209 31.4054 338.812 31.4209 338.078 31.7773ZM338.063 49.8459C338.195 51.7209 338.416 54.2623 338.533 55.502C338.665 56.7417 338.812 60.0889 338.886 62.9402C338.974 66.7213 339.121 69.1387 339.4 71.8505C339.738 75.0427 339.812 76.6543 339.929 83.2402C340.135 95.1568 340.135 95.7612 340.032 95.8697C339.973 95.9316 339.65 95.7767 339.297 95.5132C338.945 95.2653 338.239 94.8314 337.71 94.5525C337.181 94.2735 336.197 93.6227 335.521 93.1113C333.699 91.7167 329.275 87.9821 328.085 86.8354C327.527 86.2775 326.234 85.1153 325.22 84.2475C322.046 81.4892 319.415 78.9013 319.43 78.5294C319.46 77.987 320.65 75.2132 322.869 70.4559C331.245 52.4957 333.86 47.134 336.461 42.5007L337.637 40.4242L337.725 43.4304C337.784 45.0885 337.931 47.9708 338.063 49.8459Z" fill="black"/>
<path d="M206.848 66.6468C206.289 67.0032 206.01 67.4371 205.319 69.0487C204.776 70.3349 203.674 72.5664 202.175 75.4332C201.719 76.332 201.043 77.8041 200.691 78.7184C200.323 79.6326 199.559 81.4612 198.971 82.7784C197.649 85.8001 196.694 88.1866 194.21 94.633C193.123 97.4378 191.8 100.862 191.271 102.226C190.302 104.675 188.729 109.06 187.554 112.531C185.541 118.544 184.85 120.698 184.438 122.216C184.189 123.146 183.748 124.51 183.454 125.238C183.16 125.966 182.572 127.671 182.146 129.035C181.735 130.398 181.294 131.731 181.191 132.01C181.044 132.382 181.044 132.583 181.176 132.893C181.47 133.575 181.911 133.745 183.851 133.916C184.865 134.009 186.422 134.148 187.304 134.226C188.2 134.303 190.845 134.489 193.182 134.629C198.046 134.908 199.353 135.032 201.411 135.45C202.219 135.62 204.335 135.93 206.113 136.163C210.198 136.674 212.593 137.077 214.636 137.558C215.532 137.774 217.105 138.1 218.148 138.286C219.852 138.58 220.117 138.596 220.646 138.394C221.777 137.976 222.218 136.783 221.939 134.846C221.836 134.21 221.66 132.94 221.542 132.025C221.381 130.925 221.028 129.499 220.499 127.841C219.632 125.145 218.339 120.14 217.722 117.103C217.516 116.08 216.943 112.872 216.458 109.974C215.973 107.076 215.415 103.729 215.209 102.536C215.003 101.343 214.651 98.9874 214.415 97.3138C214.166 95.6247 213.769 93.2228 213.534 91.9676C212.49 86.544 212.079 83.5377 211.844 79.6791C211.506 73.7596 211.33 72.7368 210.007 68.9867C209.552 67.7161 209.302 67.2512 208.876 66.8483C208.244 66.2594 207.538 66.1974 206.848 66.6468ZM206.76 83.6307C207.142 90.8054 209.978 112.221 211.712 120.853C211.991 122.278 212.285 124.184 212.373 125.083C212.549 127.16 212.74 128.198 213.181 129.329L213.519 130.228L213.196 130.135C211.535 129.654 201.352 128.058 198.251 127.795C197.649 127.748 196.503 127.562 195.694 127.392C194.901 127.222 194.166 127.113 194.049 127.16C193.946 127.206 193.814 127.175 193.77 127.098C193.711 127.005 192.814 126.943 191.742 126.943C190.669 126.943 189.714 126.881 189.596 126.803C189.435 126.695 189.552 126.106 190.287 123.502C190.786 121.782 191.286 119.907 191.404 119.349C192.065 116.142 193.681 110.424 195.121 106.255C196.694 101.668 197.869 98.7395 200.456 93.0059C202.175 89.1783 202.704 87.9076 203.159 86.358C203.703 84.5449 204.173 83.4137 205.349 81.0738L206.407 78.9973L206.51 79.7566C206.554 80.1905 206.671 81.9261 206.76 83.6307Z" fill="black"/>
<path d="M310.006 111.397C307.934 111.862 306.068 112.931 303.687 115.039C296.81 121.098 292.064 129.28 286.024 145.458C280.69 159.777 277.516 171.74 276.223 182.494C274.974 192.784 274.944 206.777 276.135 220.072C276.531 224.334 276.605 223.884 275.503 224.008C274.092 224.148 271.109 224.845 269.743 225.326C269.067 225.558 267.347 226.441 265.907 227.278C264.453 228.115 262.616 229.184 261.807 229.649C258.707 231.431 254.901 234.065 253.799 235.181C253.358 235.631 252.065 236.746 250.933 237.661C249.802 238.575 248.141 240.078 247.245 240.977C246.349 241.876 244.688 243.503 243.557 244.603C242.234 245.858 241.117 247.082 240.471 248.012C239.075 249.949 236.959 253.141 236.43 254.087C236.195 254.505 235.857 255.078 235.68 255.357C235.137 256.194 233.256 259.433 232.315 261.137C231.36 262.904 229.656 265.957 227.598 269.552C225.6 273.085 221.765 281.189 221.074 283.374C220.486 285.172 219.575 287.636 218.356 290.735C218.032 291.541 217.518 292.905 217.209 293.757C215.755 297.848 213.198 304.263 212.581 305.395C212.39 305.736 212.022 306.572 211.772 307.254C210.479 310.679 209.039 313.871 207.437 316.846C206.938 317.776 205.806 319.915 204.939 321.573C204.058 323.231 203 325.121 202.588 325.757C202.177 326.392 201.604 327.337 201.339 327.849C199.811 330.762 194.785 339.083 194.418 339.331C194.286 339.409 193.889 340.044 192.375 342.57C189.539 347.296 189.01 348.118 187.835 349.45C187.144 350.256 186.057 351.558 185.41 352.364C184.778 353.169 182.927 355.122 181.31 356.718C179.694 358.314 177.534 360.453 176.52 361.46C175.506 362.467 174.433 363.49 174.139 363.707C173.464 364.234 170.657 366.946 169.555 368.139C167.556 370.308 162.31 377.421 160.738 380.071C159.533 382.132 158.034 384.983 157.711 385.835C157.564 386.238 157.226 387.06 156.961 387.664C155.83 390.252 154.61 396.419 154.272 401.301C154.037 404.772 154.052 410.103 154.302 411.606C154.654 413.729 155.903 418.935 156.565 421.089C156.932 422.252 157.711 424.406 158.299 425.893C158.872 427.365 159.504 429.023 159.68 429.581C159.856 430.139 160.65 431.875 161.443 433.455C162.237 435.036 163.662 437.887 164.603 439.809C169.246 449.292 173.331 455.754 177.681 460.481C179.826 462.805 183.823 466.369 187.379 469.112C189.642 470.863 195.682 474.427 199.282 476.147C205.042 478.89 216.284 480.967 222.426 480.409C227.246 479.975 231.625 479.417 232.712 479.092C233.124 478.983 234.182 478.735 235.063 478.565C235.96 478.379 237.605 477.96 238.737 477.62C243.16 476.287 245.203 475.946 251.345 475.528C254.387 475.311 255.518 475.156 259.309 474.412C264.908 473.327 265.555 473.234 269.787 472.738C271.697 472.506 273.798 472.227 274.445 472.103C275.091 471.979 277.281 471.808 279.294 471.731C281.322 471.654 284.393 471.499 286.127 471.39C287.861 471.297 292.137 471.204 295.605 471.204C301.703 471.189 302.027 471.204 304.863 471.607C310.109 472.366 313.738 472.645 321.541 472.893C325.964 473.048 328.844 473.451 334.399 474.753C339.777 475.992 341.584 476.225 347.11 476.333C351.93 476.426 353.605 476.225 357.616 475.063C362.818 473.56 366.227 472.149 370.165 469.856C373.824 467.717 376.161 465.811 380.055 461.798C382.127 459.628 382.509 459.164 384.008 456.777C389.327 448.332 391.899 442.645 393.692 435.392C394.838 430.712 395.249 427.35 395.22 422.53C395.19 418.966 394.955 416.487 394.279 412.768C394.044 411.482 393.78 409.917 393.692 409.281C392.722 402.463 391.34 396.915 389.651 393.088C389.268 392.235 388.769 391.042 388.548 390.453C386.374 384.735 384.214 380.923 381.392 377.886C378.218 374.43 372.428 369.069 369.313 366.667C365.169 363.49 361.422 360.484 360.041 359.197C357.984 357.307 352.4 351.387 351.298 349.931C350.813 349.295 349.916 348.133 349.299 347.374C348.682 346.599 347.565 345.142 346.816 344.12C346.066 343.097 344.891 341.563 344.2 340.679C343.113 339.331 342.716 338.649 341.364 335.845C339.175 331.304 338.117 328.654 337.485 326.221C337.191 325.075 336.823 323.634 336.676 323.045C336.353 321.79 335.104 315.932 334.84 314.444C334.311 311.485 333.752 308.246 333.664 307.626C333.62 307.239 333.414 306.061 333.223 304.992C332.841 302.884 332.195 298.499 332.048 297.011C331.96 296.112 331.489 293.06 330.725 288.411C330.534 287.171 330.196 285.435 329.99 284.537C329.594 282.817 328.947 279.562 328.741 278.261C328.668 277.827 328.536 276.541 328.448 275.394C328.359 274.247 328.183 272.62 328.065 271.783L327.83 270.249L328.771 269.226C329.285 268.653 330.196 267.553 330.799 266.793C331.386 266.019 332.327 264.841 332.856 264.159C334.546 262.036 337 258.503 337.984 256.798C338.499 255.9 339.468 254.226 340.13 253.079C340.806 251.933 341.526 250.6 341.746 250.135C341.967 249.67 342.598 248.477 343.157 247.501C346.478 241.643 348.902 231.818 350.078 219.375C350.387 216.059 350.416 215.145 350.401 206.358C350.387 195.805 350.269 193.233 349.402 184.973C348.917 180.418 347.786 173.925 346.669 169.245C346.331 167.835 345.89 165.495 345.699 164.054C344.891 158.072 344.406 156.042 341.452 146.341C339.527 140.019 339.233 139.213 336.926 133.867C335.383 130.334 334.472 128.629 331.783 124.306C329.917 121.299 325.215 116.108 321.864 113.334C320.777 112.436 319.175 111.645 317.941 111.366C316.53 111.056 311.431 111.072 310.006 111.397ZM315.105 118.169C318.764 120.215 320.145 121.408 322.79 124.724C327.536 130.706 330.093 136.377 332.68 146.698C334.267 152.974 336.559 163.201 337.558 168.392C337.881 170.097 338.322 172.189 338.513 173.041C339.145 175.784 339.924 180.418 340.071 182.339C340.247 184.694 340.409 186.043 340.791 188.46C341.085 190.397 341.261 191.947 341.834 197.913C341.996 199.664 342.202 201.539 342.26 202.097C342.334 202.655 342.466 206.622 342.569 210.93C342.789 221.08 342.569 224.799 341.393 230.501C339.821 238.094 334.693 248.399 328.227 256.953C327.478 257.93 326.611 259.045 326.287 259.417L325.7 260.115L325.229 258.875C324.083 255.977 321.056 251.235 318.514 248.384C317.382 247.113 315.355 244.665 313.341 242.108C311.887 240.264 307.713 235.863 306.553 234.933L305.583 234.174L305.318 232.826C304.701 229.711 303.334 225.31 302.585 224.008C302.188 223.342 301.439 222.862 300.807 222.862C299 222.877 297.897 224.752 297.853 227.929L297.824 229.51L297.148 229.107C296.149 228.487 294.165 227.402 293.783 227.278C293.592 227.216 292.549 226.658 291.447 226.038C290.33 225.419 288.772 224.69 287.964 224.396C286.671 223.962 286.274 223.884 284.658 223.838L282.821 223.791L282.644 222.831C282.542 222.288 282.395 221.467 282.321 221.002C282.248 220.537 282.071 219.514 281.939 218.755C281.822 217.98 281.645 216.555 281.572 215.578C280.969 208.357 280.925 207.118 280.925 201.244C280.94 194.783 280.925 195.108 282.101 184.663C282.336 182.51 282.909 179.116 283.702 174.978C283.967 173.568 284.305 171.724 284.452 170.872C284.834 168.454 287.023 159.389 287.964 156.305C289.61 150.866 291.682 145.241 293.313 141.739C293.798 140.716 295.061 137.958 296.134 135.618C298.177 131.124 298.676 130.148 300.204 127.637C302.291 124.244 303.129 123.205 305.259 121.284C307.037 119.688 308.125 118.944 309.697 118.247C310.961 117.689 311.123 117.658 312.607 117.642C314.106 117.642 314.208 117.658 315.105 118.169ZM284.026 234.887C286.156 235.212 288.89 236.064 290.462 236.886C291.931 237.645 295.781 240.295 297.368 241.628L298.397 242.495L298.735 243.952C298.911 244.758 299.191 246.106 299.338 246.958C300.102 251.018 301.027 253.901 303.364 259.355C305.171 263.57 308.287 268.312 310.432 270.11C311.402 270.931 314.488 272.667 315.957 273.24C316.457 273.426 316.912 273.689 316.971 273.829C317.045 273.968 317.133 274.743 317.191 275.549C317.25 276.355 317.412 277.889 317.574 278.958C317.72 280.027 317.956 281.98 318.088 283.297C318.44 286.97 319.278 292.254 319.925 294.842C320.248 296.112 320.674 298.034 320.88 299.103C321.086 300.172 321.453 301.799 321.688 302.745C322.32 305.193 322.966 308.23 323.231 310.028C323.76 313.561 324.127 315.374 324.994 318.861C325.273 319.961 325.758 321.96 326.082 323.277C326.743 325.958 327.301 327.725 329.021 332.559C331.019 338.123 331.093 338.278 334.09 343.345C336.206 346.909 337.47 348.83 338.881 350.613C339.601 351.558 340.203 352.364 340.203 352.441C340.203 352.612 343.671 356.594 344.068 356.873C344.244 357.012 344.817 357.539 345.346 358.066C345.875 358.593 346.669 359.306 347.11 359.647C347.551 359.988 348.05 360.437 348.212 360.623C348.373 360.809 348.932 361.336 349.461 361.785C349.99 362.235 351.224 363.412 352.223 364.404C354.06 366.202 355.471 367.302 357.602 368.542C358.233 368.914 359.262 369.673 359.865 370.231C361.981 372.137 363.494 373.392 364.89 374.368C369.034 377.251 369.695 377.808 372.223 380.458C373.266 381.543 373.736 382.209 374.838 384.177C375.588 385.495 376.528 387.339 376.94 388.268C377.351 389.198 378.115 390.763 378.63 391.755C379.614 393.63 380.29 395.567 380.746 397.706C380.907 398.403 381.319 400.231 381.686 401.766C382.053 403.3 382.421 405.035 382.509 405.64C382.612 406.228 382.818 407.561 382.979 408.584C383.464 411.637 383.714 413.651 384.125 417.649C384.214 418.455 384.287 421.57 384.287 424.561C384.287 429.085 384.243 430.387 383.993 432.464C383.435 437.143 383.2 438.352 382.671 439.235C382.406 439.685 381.701 440.894 381.113 441.947C379.203 445.31 376.705 448.595 373.251 452.237C371.973 453.585 370.871 454.794 370.797 454.933C370.724 455.073 370.033 455.77 369.284 456.483C367.814 457.862 366.257 458.823 364.346 459.551C363.759 459.768 362.95 460.124 362.554 460.341C361.07 461.116 358.189 461.829 355.265 462.123C353.267 462.309 345.552 462.325 343.95 462.139C343.304 462.061 341.585 461.922 340.13 461.813C337.808 461.674 335.707 461.349 334.031 460.868C333.752 460.791 332.797 460.589 331.901 460.434C331.019 460.264 329.564 459.954 328.668 459.752C327.786 459.535 326.758 459.319 326.39 459.257C326.023 459.195 324.348 458.838 322.643 458.466C320.101 457.893 319.116 457.753 317.059 457.629C314.62 457.505 296.986 457.676 296.751 457.831C296.678 457.877 294.709 458.063 292.372 458.234C284.849 458.807 284.085 458.869 282.483 459.102C281.616 459.226 279.926 459.427 278.706 459.566C276.429 459.799 274.063 460.093 271.139 460.512C270.213 460.636 268.332 461.023 266.951 461.349C264.658 461.906 264.173 461.968 260.999 462.123C256.503 462.34 254.504 462.511 251.007 462.991C246.305 463.626 240.544 464.99 237.032 466.323C230.537 468.771 223.396 470.042 218.605 469.577C217.635 469.484 215.417 469.298 213.683 469.174C208.099 468.74 208.569 468.849 205.527 467.253C204.072 466.478 202.147 465.378 201.251 464.82C200.369 464.246 199.062 463.441 198.327 463.022C197.607 462.604 196.945 462.17 196.857 462.061C196.784 461.953 196.079 461.395 195.314 460.806C191.376 457.831 188.893 455.599 186.498 452.919C184.484 450.656 183.147 448.766 180.796 444.845C176.579 437.748 173.919 432.154 170.275 422.546C168.585 418.13 168.173 416.905 167.086 413.155C166.013 409.39 165.91 408.894 165.822 406.337C165.734 403.842 165.94 401.75 166.454 399.829C167.13 397.334 170.26 390.097 171.289 388.671C171.627 388.206 172.303 387.184 172.802 386.424C174.081 384.441 175.418 382.721 177.622 380.21C178.68 379.017 180.87 376.29 182.501 374.167C184.117 372.044 186.057 369.611 186.792 368.759C187.541 367.906 188.423 366.853 188.761 366.434C193.918 359.988 195.358 358.221 196.137 357.369C196.652 356.811 197.519 355.757 198.062 355.013C198.606 354.285 199.546 353.03 200.134 352.224C204.601 346.227 204.719 346.057 207.79 340.834C209.715 337.565 214.52 327.337 215.784 323.82C216.651 321.418 216.754 321.185 219.928 314.289C221.397 311.097 222.676 308.261 222.764 308.013C223.793 305.054 224.351 303.551 224.704 302.9C225.468 301.459 228.025 296.081 228.348 295.229C228.524 294.764 228.965 293.493 229.332 292.409C230.39 289.279 231.507 286.567 234.167 280.74C236.503 275.611 236.195 276.231 240.324 268.885C241.22 267.305 242.337 265.352 242.822 264.547C243.307 263.741 244.13 262.207 244.629 261.137C246.217 257.852 249.773 253.172 254.254 248.477C261.91 240.481 268.17 236.56 275.473 235.181C278.06 234.701 278.148 234.701 280.528 234.67C281.675 234.654 283.129 234.732 284.026 234.887ZM310.417 252.274C311.945 254.257 313.327 256.38 313.9 257.666C314.561 259.138 315.428 261.711 315.56 262.579C315.634 263.09 315.619 263.136 315.384 262.997C315.237 262.919 314.605 262.284 313.988 261.587C311.857 259.2 309.712 255.311 308.624 251.886C308.287 250.848 308.022 249.965 308.022 249.903C308.022 249.67 309.668 251.313 310.417 252.274Z" fill="black"/>
<path d="M412.286 120.061C412.051 120.185 411.728 120.418 411.581 120.557C411.243 120.883 410.523 122.479 409.788 124.54C409.2 126.198 406.614 136.844 405.894 140.578C405.644 141.818 405.086 144.111 404.63 145.692C404.19 147.273 403.558 149.597 403.249 150.883C402.412 154.354 401.736 156.818 400.913 159.406C400.119 161.932 398.694 167.588 398.694 168.239C398.694 169.029 399.252 169.742 400.986 171.183C401.883 171.927 407.055 175.879 410.449 178.404C412.301 179.799 415.064 181.55 416.974 182.573C418.678 183.472 418.87 183.534 420.016 183.611C421.162 183.673 421.309 183.658 422.058 183.239C423.19 182.619 423.469 182.031 423.822 179.443C424.453 174.716 424.542 167.48 424.115 154.447C423.939 148.776 423.777 146.684 423.146 142.05C422.484 137.154 421.867 133.76 421.221 131.668C420.398 128.972 418.605 125.547 416.46 122.603C414.667 120.123 413.491 119.395 412.286 120.061ZM415.681 130.8C416.974 133.14 417.958 136.596 418.737 141.462C419.472 146.033 419.619 148.605 419.604 155.842C419.604 161.591 419.207 177.568 419.075 177.707C418.899 177.893 413.55 174.159 408.098 170.037C406.849 169.091 405.762 168.301 405.703 168.27C405.63 168.254 405.644 167.945 405.718 167.619C405.806 167.278 405.982 166.224 406.115 165.295C406.247 164.349 406.541 162.877 406.791 162.009C407.026 161.142 407.687 158.538 408.245 156.198C408.818 153.874 409.582 150.852 409.935 149.489C410.641 146.839 412.345 139.555 413.168 135.619C413.653 133.372 414.358 130.165 414.52 129.529C414.637 129.049 414.873 129.297 415.681 130.8Z" fill="black"/>
<path d="M200.088 137.186C197.693 137.527 195.842 138.317 193.329 140.084C191.477 141.37 190.346 142.361 188.494 144.268C186.79 146.034 185.658 147.522 184.512 149.505C184.115 150.172 183.292 151.566 182.661 152.589C179.736 157.408 178.12 160.755 176.298 165.73C175.681 167.419 174.99 169.201 174.755 169.681C173.329 172.672 170.787 180.498 169.979 184.434C168.921 189.532 168.275 194.661 168.275 197.9C168.275 200.596 168.51 206.206 168.73 208.375C168.995 211.041 170.155 217.239 171.052 220.788C174.432 234.037 175.534 237.245 179.531 245.225C182.132 250.432 183.175 252.09 186.173 255.716C188.774 258.878 190.463 260.35 193.006 261.698C196.15 263.371 198.002 263.914 201.058 264.038C203.189 264.131 203.204 264.131 204.585 263.619C206.76 262.829 207.436 262.38 210.595 259.699C214.842 256.088 216.781 253.903 220.117 248.975C224.173 242.963 226.744 237.384 229.037 229.528C229.492 227.947 230.095 225.886 230.359 224.956C231.05 222.616 232.446 216.542 232.725 214.698C232.843 213.861 233.107 212.265 233.313 211.165C233.812 208.251 233.93 206.764 234.121 199.93C234.327 192.523 234.283 191.268 233.519 184.31C233.078 180.25 231.579 174.253 229.992 170.162C229.58 169.108 228.89 167.264 228.449 166.071C225.392 157.61 221.88 151.241 215.959 143.446C212.961 139.51 211.08 137.961 208.611 137.403C207.347 137.124 201.558 136.969 200.088 137.186ZM206.157 143.617C206.863 143.834 207.994 144.298 208.685 144.639C209.787 145.213 210.154 145.523 211.771 147.227C213.637 149.211 216.532 152.992 217.604 154.836C217.928 155.394 218.633 156.742 219.191 157.858C219.735 158.958 220.675 160.817 221.263 161.964C222.983 165.327 225.407 171.603 226.157 174.625C226.95 177.786 227.876 183.039 228.258 186.371C228.375 187.424 228.449 190.028 228.449 193.112C228.449 197.683 228.42 198.334 228.111 200.224C227.655 203.014 227.259 205.028 226.906 206.438C226.524 207.972 225.51 213.102 225.216 214.977C224.893 217.146 223.864 221.981 223.453 223.329C223.262 223.965 222.953 225.251 222.777 226.196C222.6 227.126 222.365 227.978 222.277 228.056C221.954 228.334 220.793 230.938 219.72 233.789C218.559 236.842 216.767 240.809 215.606 242.823C215.209 243.536 214.342 244.853 213.71 245.768C213.064 246.682 212.3 247.813 212.02 248.294C210.918 250.138 206.245 255.034 203.909 256.801L202.586 257.808H200.97C198.736 257.793 196.885 257.39 195.753 256.662C193.726 255.344 190.478 251.563 188.671 248.387C186.893 245.303 186.364 244.125 184.879 239.941C184.159 237.927 183.248 235.401 182.852 234.332C177.929 221.222 176.886 217.239 176.077 208.53C175.607 203.51 176.18 193.236 177.326 186.076C177.958 182.125 178.296 180.684 179.839 175.678C180.324 174.098 182.073 169.774 183.924 165.528C184.35 164.552 184.879 163.297 185.1 162.739C186.143 160.105 188.2 156.262 189.655 154.216C190.713 152.728 193.079 150.017 194.211 149.009C195.709 147.661 201.514 143.71 202.631 143.276C203.321 142.997 204.497 143.105 206.157 143.617Z" fill="black"/>
<path d="M90.7469 168.07C89.6154 168.597 88.7484 170.58 88.3223 173.679C88.1606 174.826 88.0578 175.818 88.1019 175.88C88.1459 175.957 88.0725 177.011 87.9549 178.251C87.661 181.427 87.4994 195.405 87.7345 199.155C87.9402 202.735 88.1459 205.586 88.337 207.601C88.4104 208.453 88.5574 209.987 88.6309 211.01C88.8807 213.969 89.586 219.13 90.0121 221.082C90.5558 223.593 90.7322 224.259 90.8644 224.259C90.9526 224.259 90.982 224.367 90.9379 224.476C90.791 224.863 91.6726 227.25 92.0841 227.622C92.4074 227.916 92.6425 227.978 93.4507 227.978H94.4499L95.3169 227.033C96.0957 226.196 99.2404 223.593 101.547 221.842C102.003 221.501 103.531 220.524 104.942 219.688C106.353 218.851 107.704 218.014 107.94 217.844C108.88 217.146 111.892 215.349 114.508 213.954C117.623 212.28 118.167 211.816 118.167 210.762C118.167 209.909 118.035 209.693 116.903 208.763C115.14 207.275 111.158 202.053 107.117 195.916C102.855 189.454 102.018 187.982 99.1816 181.954C97.6827 178.762 96.1692 175.446 95.8312 174.594C95.4932 173.741 94.9201 172.316 94.5675 171.432C94.2148 170.549 93.9209 169.712 93.9209 169.573C93.9209 169.232 92.9364 168.225 92.4074 168.023C91.8637 167.806 91.3053 167.822 90.7469 168.07ZM95.5373 186.836C98.197 191.345 105.838 203.355 107.704 205.973L109.321 208.22L108.336 208.701C106.735 209.491 100.989 213.055 99.6518 214.109C98.1236 215.287 97.1684 215.953 97.095 215.876C96.9774 215.736 94.3471 199.697 94.0826 197.451C93.6858 194.196 93.5095 191.562 93.3919 187.068C93.3184 183.798 93.3331 183.302 93.5095 183.504C93.627 183.628 94.5381 185.131 95.5373 186.836Z" fill="black"/>
<path d="M389.589 200.852C388.281 201.147 386.665 201.798 385.533 202.51C384.108 203.378 382.168 205.393 381.125 207.051C380.728 207.686 379.964 208.771 379.435 209.453C376.805 212.784 374.997 215.713 373.322 219.37C371.015 224.437 370.133 227.134 368.429 234.324C367.297 239.128 366.842 241.654 366.283 245.946C366.136 247.015 365.872 248.999 365.681 250.363C364.182 260.807 363.962 263.844 364.05 272.29C364.079 275.575 364.182 278.674 364.27 279.186C364.491 280.503 364.858 283.199 364.961 284.361C365.005 284.904 365.211 286.019 365.416 286.841C365.607 287.662 365.872 288.855 365.989 289.491C366.313 291.288 366.871 293.582 367.444 295.472C367.723 296.417 368.326 298.897 368.781 300.973C369.252 303.05 369.81 305.343 370.03 306.072C370.53 307.699 374.233 316.299 375.335 318.407C375.761 319.243 376.952 321.227 377.936 322.807C381.757 328.851 384.034 331.268 387.987 333.5C390.544 334.926 392.748 335.514 395.584 335.514C397.656 335.514 398.905 335.251 400.243 334.538C400.801 334.244 401.506 333.918 401.815 333.825C402.682 333.515 404.93 331.888 405.812 330.912C407.134 329.44 409.677 325.504 411.352 322.312C412.351 320.406 415.158 314.192 415.437 313.262C415.54 312.936 416.172 311.278 416.862 309.589C417.538 307.916 418.346 305.793 418.655 304.863C418.978 303.949 419.478 302.538 419.772 301.733C421.124 298.091 422.255 292.776 423.078 286.329C423.93 279.558 424.033 277.682 424.018 269.733C424.004 263.163 423.974 262.202 423.68 259.893C423.254 256.53 422.417 251.23 421.976 249.2C421.785 248.302 421.491 246.799 421.315 245.869C420.771 243.079 417.744 232.155 416.554 228.668C415.907 226.808 414.922 224.36 414.276 222.981C412.939 220.192 409.618 214.721 408.075 212.784C407.502 212.056 406.444 210.739 405.738 209.84C403.372 206.849 399.714 203.673 396.246 201.565L395.041 200.837L392.645 200.775C391.323 200.744 389.942 200.775 389.589 200.852ZM393.042 210.212C394.071 210.723 395.996 212.041 397.142 213.017C397.465 213.296 397.994 213.699 398.318 213.9C400.096 215.078 404.048 222.903 407.178 231.457C410.059 239.36 412.645 247.604 413.306 251.091C414.408 256.809 414.908 261.133 415.084 266.556C415.158 269.082 415.114 269.981 414.717 274.149C414.467 276.753 414.173 280.58 414.041 282.672C413.732 287.848 413.012 294.108 412.189 298.711C411.543 302.29 409.221 308.551 407.311 311.883C406.664 312.983 405.753 314.765 405.268 315.834C404.798 316.903 403.769 318.778 402.99 320.018C402.212 321.258 401.212 322.838 400.786 323.536C399.905 324.93 396.407 328.634 395.805 328.789C394.776 329.068 390.926 326.682 388.046 323.985C385.768 321.847 382.697 317.26 380.684 312.967C378.495 308.288 376.202 299.982 375.041 292.481C374.88 291.474 374.659 290.064 374.527 289.336C374.116 286.918 373.572 281.371 373.175 275.234C372.881 270.74 372.955 261.071 373.322 257.181C373.866 251.447 375.791 238.508 376.805 233.937C377.701 229.83 379.45 225.321 381.698 221.338C383.109 218.859 385.93 214.582 387.017 213.311C388.531 211.529 390.897 209.701 391.705 209.685C391.867 209.685 392.469 209.918 393.042 210.212Z" fill="black"/>
<path d="M124.574 234.362C123.633 234.579 121.032 236.005 119.886 236.919C118.549 238.004 116.727 239.988 115.83 241.398C115.39 242.064 114.89 242.792 114.699 243.009C114.141 243.66 112.495 247.317 111.863 249.316C111.54 250.355 111.128 252.059 110.952 253.113C110.585 255.375 110.408 259.807 110.555 262.829C110.717 265.897 111.349 270.5 111.995 273.304C112.304 274.668 112.701 276.543 112.877 277.488C113.376 280.169 114.772 285.856 115.61 288.63C117.271 294.131 122.164 304.762 125.367 309.876C128.336 314.586 129.776 316.492 133.949 321.141C137.843 325.496 140.121 327.371 143.06 328.61C147.057 330.3 149.628 330.377 152.303 328.889C153.449 328.254 154.228 327.34 155.521 325.031C156.461 323.357 158.254 319.127 159.077 316.647C161.56 309.07 163.72 297.556 163.955 290.536C164.161 284.648 163.309 278.744 160.84 268.733C160.12 265.82 158.93 261.961 158.283 260.443C157.475 258.552 155.286 254.353 154.242 252.694C151.142 247.767 147.762 244.063 143.324 240.716C140.341 238.453 134.522 235.587 131.025 234.626C129.629 234.254 125.749 234.084 124.574 234.362ZM131.598 240.39C134.39 241.367 137.417 243.288 140.65 246.155C145.352 250.308 148.585 254.632 151.289 260.365C154.58 267.354 157.49 276.915 158.386 283.625C158.724 286.275 158.724 293.419 158.386 296.735C157.96 300.795 157.269 304.452 156.417 307.319C155.785 309.395 154.066 312.913 150.554 319.375C150.172 320.072 149.613 320.94 149.32 321.265C148.835 321.808 148.702 321.885 148.1 321.885C146.998 321.885 144.926 320.893 143.074 319.499C140.899 317.841 139.724 316.725 137.461 314.106C132.847 308.775 129.981 304.498 127.616 299.416C125.867 295.635 125.279 294.193 124.089 290.583C122.355 285.33 121.253 280.743 120.151 274.312C119.254 268.997 118.916 265.789 118.799 261.527C118.667 255.84 118.99 253.578 120.636 248.867C121.356 246.775 122.046 245.768 124.75 242.746L126.851 240.39L128.056 240.096C129.438 239.74 129.805 239.771 131.598 240.39Z" fill="black"/>
</svg>
