<svg width="116" height="128" viewBox="0 0 116 128" fill="none" xmlns="http://www.w3.org/2000/svg">
<path d="M30.3054 60.7595L31.2525 39.0867L36.0863 35.0909C36.0863 35.0909 39.7152 18.6937 45.4257 11.6432C51.1361 4.59273 55.7966 2.76543 58.9097 1.39091C62.0228 0.0163888 71.62 -0.889178 71.62 1.39091C71.62 3.671 67.2175 6.63026 64.6201 10.2687C62.0228 13.9071 59.1676 19.1465 57.6202 23.7067C56.0729 28.2668 54.3413 33.7164 54.3413 33.7164L59.9597 34.8484C59.9597 34.8484 63.0728 28.2507 65.928 24.8386C68.7832 21.4266 72.799 16.7532 77.7358 13.4544C81.9173 10.6568 87.7198 7.76222 94.204 7.76222C100.688 7.76222 109.254 9.36313 108.462 13.5675C108.038 15.8638 103.138 14.8127 98.2197 17.6588C92.2329 21.1193 85.7672 26.8761 80.9778 36.5463C76.1884 46.2165 74.4937 50.437 74.4937 50.437L30.3054 60.7595Z" fill="#6D4821"/>
<path d="M29.1511 107.32C29.1511 107.32 39.7339 113.186 44.4066 113.396C51.591 113.736 62.1738 110.01 68.8042 103.626C75.4346 97.2429 80.9014 87.9431 79.941 76.6018C79.1099 66.8321 75.3053 63.2515 75.3053 63.2515C75.3053 63.2515 81.9357 68.9545 91.5581 68.274C101.18 67.5936 108.974 62.4576 111.966 57.3216C114.33 53.2711 116.51 48.3134 115.088 47.4061C113.666 46.4988 108.882 47.4061 108.882 47.4061L90.7639 54.5835L59.699 56.4143L27.1934 97.1295L29.1511 107.32ZM4.18096 42.5455C2.88812 43.3232 4.82737 48.4754 9.38923 51.5537C13.9511 54.6321 20.4337 55.5394 20.4337 55.5394L30.0561 44.0199C30.0561 44.0199 6.65581 41.0549 4.18096 42.5455Z" fill="#6D4821"/>
<path d="M37.3439 46.9219C38.6064 47.5677 41.2046 40.8257 57.8184 40.9359C76.1155 41.0462 85.7581 48.7019 87.1853 48.8122C88.5941 48.9225 98.3831 48.8122 101.475 48.5916C104.568 48.3711 109.983 46.2603 109.855 47.8198C109.727 49.3793 107.66 57.9171 98.5295 60.1224C89.3809 62.3435 73.9382 57.5706 70.974 57.35C68.0099 57.1295 65.43 57.35 65.6862 61.2251C65.9423 65.1002 32.0744 82.6327 32.0744 82.6327C32.0744 82.6327 7.30007 72.6929 6.91583 71.4642C6.53159 70.2513 9.31275 67.022 11.5999 63.9976C14.4908 60.154 15.9729 55.9008 17.5282 53.6797C19.0651 51.4586 21.5169 48.5759 21.5169 48.5759C21.5169 48.5759 16.7048 48.9067 13.5394 47.7253C11.362 46.9219 5.94608 43.8029 5.68992 42.7002C5.43376 41.5976 11.7463 42.8105 16.8878 42.3694C22.0475 41.9284 31.6901 37.2656 31.6901 37.2656C31.6901 37.2656 34.9104 39.4867 35.807 41.5976C36.7035 43.7084 36.7035 46.5911 37.3439 46.9219Z" fill="#FFD2B1"/>
<path d="M14.1702 99.8602C14.1702 99.8602 12.6387 104.888 13.5462 110.37C14.2647 114.668 18.0272 118.82 18.6889 120.295C19.3506 121.771 20.5607 125.21 20.4283 126.345C20.296 127.48 22.111 127.756 22.5081 126.913C22.9996 125.891 22.4703 124.464 23.8315 124.739C25.3441 125.047 23.8315 127.561 25.7789 127.626C27.8209 127.707 26.4407 125.339 27.9154 125.339C29.4658 125.339 28.0856 128.048 30.3166 127.999C32.3585 127.967 30.4489 125.599 32.3963 125.647C33.9845 125.68 32.661 128.161 34.8731 127.886C36.121 127.74 34.6652 125.193 36.2911 124.885C37.7092 124.626 36.9529 127.172 38.5978 126.637C39.6566 126.296 40.0158 123.928 39.6187 121.187C39.2217 118.446 38.0306 114.57 37.3499 111.44C36.6882 108.326 35.9319 105.001 35.8941 102.033C35.8563 99.0655 35.7996 95.5947 35.7996 95.5947L14.1702 99.8602Z" fill="#6D4821"/>
<path d="M37.5324 74.0502C38.5378 74.1319 42.3399 70.3765 44.0581 67.6987C45.7764 65.021 50.3279 59.1104 57.0182 58.4246C63.8912 57.7225 67.9127 60.9554 69.5395 66.017C71.0384 70.6867 69.6309 76.0585 62.7579 78.9649C56.1408 81.7732 53.5816 80.6466 48.0065 82.0998C45.0452 82.8672 40.4571 85.1694 40.2012 85.4633C39.9453 85.7735 41.7184 96.7784 31.9755 101.546C23.8229 105.53 11.3015 103.995 4.86722 96.7947C-2.1886 88.8921 -0.872489 77.0219 4.3554 71.2745C9.52845 65.5925 15.7617 63.5188 24.9379 65.919C35.2109 68.6131 36.5819 73.9686 37.5324 74.0502Z" fill="#FFD2B1"/>
<path d="M64.3992 70.9325C64.3992 74.2075 62.018 77.1964 57.3283 77.2759C53.3111 77.3395 51.7479 74.4301 51.6206 71.1551C51.457 66.9738 54.8743 64.8752 58.2735 64.8116C62.6906 64.7322 64.3992 67.6574 64.3992 70.9325ZM10.2309 79.1996C10.2309 79.1996 16.8838 76.004 17.72 75.6225C18.5561 75.2409 20.7192 74.5573 21.8826 76.1312C23.0277 77.7052 21.1737 79.1042 19.7013 79.6606C18.2289 80.2171 12.0305 83.5239 12.0305 83.5239C12.0305 83.5239 11.3216 87.6098 11.9578 88.0549C13.6664 89.2473 16.2476 89.8992 18.3562 89.7402C20.4648 89.5653 22.1371 88.7863 22.7733 88.675C23.4095 88.5637 25.209 88.5001 25.5907 89.6289C25.9725 90.7418 25.0636 92.0454 23.4822 92.7131C21.5917 93.4922 19.7013 94.3189 16.5021 93.826C14.0118 93.4445 12.0305 92.9357 10.8671 92.2521C9.72198 91.5844 8.5041 90.3443 8.5041 90.3443C8.5041 90.3443 6.77726 92.1885 5.17766 92.1408C3.57805 92.0772 1.52402 91.1869 1.46949 91.0279C1.39678 90.853 -0.711783 89.4063 0.251613 87.8324C1.21501 86.2584 3.3781 88.3888 4.72322 88.5637C6.06834 88.7386 6.9045 87.9437 7.03174 87.5621C7.15898 87.1646 7.10445 82.8085 7.10445 82.8085C7.10445 82.8085 4.23244 79.5653 3.57806 79.0088C2.94185 78.4524 1.26954 76.6082 2.99638 75.4794C4.72323 74.3506 5.86839 75.4794 6.32283 75.8133C6.77726 76.1471 10.2309 79.1996 10.2309 79.1996Z" fill="#2F2F2F"/>
</svg>
