<svg width="128" height="128" viewBox="0 0 128 128" fill="none" xmlns="http://www.w3.org/2000/svg">
<path d="M14.7201 40.4797C14.7201 40.4797 3.74011 59.7697 4.72011 76.2397C5.70011 92.7097 10.0701 96.7897 20.4901 101.72C30.9101 106.65 31.0501 52.1697 31.0501 52.1697L14.7201 40.4797ZM112.84 37.9497L98.3901 53.9997C98.3901 53.9997 100.74 102.85 103.13 103.27C105.52 103.69 117.63 98.4797 121.43 90.7397C125.23 82.9997 123.57 70.0397 122.7 65.5397C121.01 56.8097 112.84 37.9497 112.84 37.9497Z" fill="#FFD2B1"/>
<path d="M64.2299 8.80948C53.8099 8.67948 44.1499 12.0495 44.1499 12.0495C44.1499 12.0495 26.6899 -0.620519 14.8599 9.50948C0.0899386 22.1795 13.1699 40.7595 14.2999 42.0295C15.4299 43.2995 20.4899 55.2595 20.4899 55.2595C20.4899 55.2595 17.3899 67.3695 17.2499 75.8095C17.0499 87.6495 19.6399 101.339 19.6399 101.339C19.6399 101.339 24.5699 103.549 29.0699 105.089C32.6899 106.329 34.9799 106.639 36.2499 107.619C37.5199 108.609 45.6799 120.009 55.2599 121.559C63.7099 122.929 77.2199 121.979 84.5399 114.239C90.1499 108.309 91.2999 106.779 92.2799 106.219C93.2699 105.659 105.61 102.889 105.61 102.889C105.61 102.889 109.88 82.1495 109.88 73.1395C109.88 64.1295 108.75 56.9495 108.75 56.9495L113.54 44.5595C113.54 44.5595 129.03 24.7095 114.81 12.5995C101.72 1.44948 86.9399 13.4395 86.9399 13.4395C86.9399 13.4395 75.4899 8.94948 64.2299 8.80948Z" fill="#FDD037"/>
<path d="M19.0802 16.4098C27.5302 9.06982 34.7102 16.2698 34.7102 16.9698C34.7102 17.3098 29.7902 20.1998 25.8402 23.8698C21.6402 27.7698 18.3902 32.4598 17.9602 32.4598C17.1102 32.4598 11.6202 22.8898 19.0802 16.4098ZM109.47 18.3798C104.27 13.5898 95.8102 17.6798 95.5302 18.3798C95.3902 18.7298 100.03 21.9298 103.55 25.4198C107.2 29.0398 110.3 33.0898 110.59 33.1598C111.15 33.2998 116.5 24.8598 109.47 18.3798Z" fill="#FF6011"/>
<path d="M39.78 87.3599C39.78 87.3599 39.49 115.95 62.59 115.23C89.76 114.39 86.1 88.6199 86.1 88.6199L39.78 87.3599Z" fill="#FFD2B1"/>
<path d="M63.43 81.1699C63.43 81.1699 44.85 90.8799 44.99 90.3199C45.06 90.0499 49.62 93.5699 54.37 97.3199C59.56 101.42 73.13 98.4599 73.13 98.4599L82.02 90.4499L63.43 81.1699Z" fill="#FEA7A5"/>
<path d="M64.56 64.1299C64.56 64.1299 42.04 53.2899 34.43 63.8499C26.82 74.4099 34.43 85.2499 39.78 87.3599C45.13 89.4699 53.58 96.7899 53.58 96.7899C53.58 96.7899 54.99 93.8299 54.85 92.4299C54.71 91.0199 53.72 86.6599 53.72 86.6599L63.43 81.1699L71.31 88.3499C71.31 88.3499 70.18 95.5299 70.75 96.3699C71.32 97.2099 75.68 95.3799 75.68 95.3799L77.93 88.3398C77.93 88.3398 83.33 88.0098 86.85 87.5898C90.37 87.1698 97.78 82.2899 96.94 73.6999C96.1 65.1099 88.35 60.1899 82.44 60.3299C76.52 60.4699 64.56 64.1299 64.56 64.1299Z" fill="white"/>
<path d="M90.8801 86.6601C90.3001 85.2201 80.7401 84.8301 74.5501 81.1701C68.0501 77.3301 68.5001 72.8601 68.5001 72.8601C68.5001 72.8601 73.1801 70.4701 77.3701 67.3701C81.5601 64.2701 85.1601 60.5301 83.9901 58.5001C81.2201 53.7101 72.4501 60.0501 64.1401 59.6301C56.1101 59.2201 45.5301 54.3501 43.7301 56.9601C41.8301 59.7101 45.5801 63.9801 50.0701 67.2401C54.5601 70.5001 59.7801 72.7301 59.7801 72.7301C59.7801 72.7301 59.7801 78.3601 52.6001 81.4601C44.5801 84.9201 37.0201 84.7001 36.5501 85.1201C35.1401 86.3901 37.0801 87.7801 38.6601 88.3601C40.2101 88.9201 41.9001 88.9201 41.9001 88.9201C41.9001 88.9201 43.1701 99.9001 63.4401 100.32C83.1501 100.73 83.8501 90.4701 83.8501 90.4701C83.8501 90.4701 85.8201 90.0501 87.6901 89.3601C89.5601 88.6701 91.3001 87.7101 90.8801 86.6601ZM63.1501 95.6701C51.4701 95.5301 47.5201 90.1801 47.5201 90.1801C47.5201 90.1801 51.8801 90.1801 54.9801 89.4801C58.8101 88.6101 63.2901 84.8301 63.2901 84.8301C63.2901 84.8301 66.9401 88.6701 70.0501 89.7601C72.8701 90.7501 78.0701 91.3101 78.0701 91.3101C78.0701 91.3101 74.8301 95.8101 63.1501 95.6701ZM47.9401 41.6101C47.9401 45.0701 44.9601 47.9401 41.4601 48.5101C38.0101 49.0701 34.8401 46.0501 34.9801 41.4701C35.0901 38.0101 38.0601 35.8401 41.6001 35.8401C45.1401 35.8401 47.9401 37.8801 47.9401 41.6101ZM86.9401 48.2301C83.6601 47.1201 81.6901 44.3101 82.5201 40.3301C83.4201 35.9801 86.4601 34.2401 90.7401 35.8401C93.9801 37.0501 95.5001 41.1501 94.4701 44.5301C93.5601 47.5201 90.4701 49.4201 86.9401 48.2301ZM102.05 41.1401C100.68 42.6901 96.8501 41.4801 96.3201 43.5801C95.5701 46.5801 103.55 49.2101 106.46 45.3601C109.37 41.5101 106.09 32.9301 103.36 34.7501C101.68 35.8801 103.46 39.5401 102.05 41.1401Z" fill="#2F2F2F"/>
<path d="M109.47 38.3206C108.41 38.7506 109.66 42.1705 110.13 44.8005C110.6 47.4305 110.13 51.8405 108.63 53.6205C107.13 55.4005 105.72 54.9305 105.72 54.9305C105.72 54.9305 102.16 48.5106 100.28 51.0806C98.4999 53.5206 102.34 53.9006 101.88 58.6805C101.41 63.4706 98.0999 65.8505 101.5 66.5605C103.28 66.9405 105.07 63.6506 105.07 63.6506C105.07 63.6506 110.89 63.7405 113.8 56.8905C115.99 51.7405 114.64 47.8805 113.61 43.9405C112.58 40.0005 109.93 38.1406 109.47 38.3206ZM110.03 69.2005C106.46 73.1405 101.21 77.5505 100.83 78.6805C100.45 79.8105 100.45 82.4305 105.62 81.5905C110.79 80.7505 115.66 75.9605 117.21 73.0005C119.24 69.1305 119.98 62.6305 118.85 60.2805C117.72 57.9305 115.66 59.0605 115 61.0305C114.35 63.0105 111.39 67.7005 110.03 69.2005ZM28.5599 38.7906C28.4699 36.4406 30.8099 34.3806 29.3999 33.1606C27.5299 31.5406 22.4499 35.9806 24.0499 41.3306C25.6499 46.6806 31.9699 46.0206 33.0099 45.1806C34.7499 43.7706 33.4699 42.5206 32.5399 42.0806C31.0999 41.4006 28.6499 41.0806 28.5599 38.7906Z" fill="#2F2F2F"/>
<path d="M23.8699 52.5898C23.8699 52.5898 26.0299 49.0198 27.8099 50.5298C29.5899 52.0298 25.6499 54.5698 26.1199 58.8798C26.5899 63.1898 29.0299 66.3898 27.8099 67.6098C26.1199 69.2998 23.4899 65.7298 22.6499 64.4198C21.8099 63.1098 21.2399 61.3198 21.2399 61.3198C21.2399 61.3198 15.4199 56.5298 14.3899 50.6198C13.5899 46.0498 14.8599 40.7698 17.6699 38.2298C19.5899 36.4998 20.5599 36.5198 21.3299 37.2898C22.4599 38.4198 19.4499 42.9198 20.4899 47.3298C21.5199 51.7498 23.8699 52.5898 23.8699 52.5898ZM19.8399 69.6698C17.2599 66.4498 12.6599 58.8998 10.9199 59.5298C8.85994 60.2798 9.22994 70.0598 14.1099 75.6698C20.2999 82.7998 28.2799 82.7098 29.2199 79.7998C29.9099 77.6598 24.3399 75.2998 19.8399 69.6698ZM58.3599 9.0198C58.3599 9.0198 59.0599 14.0898 53.4999 15.7098C47.9399 17.3298 44.5599 15.2698 44.7699 19.7898C44.8799 22.0398 47.2799 23.1598 49.6999 23.3098C52.1199 23.4598 54.5199 22.5598 55.8199 22.0398C58.6399 20.9098 63.1399 15.3498 63.9099 15.2098C64.6799 15.0698 67.0799 19.0098 71.9299 21.1198C74.1499 22.0798 76.9699 22.8898 79.1299 22.5998C81.3999 22.2998 83.2999 20.7698 83.1199 17.8098C82.9999 15.5698 79.7599 16.6898 74.4099 14.9998C69.0599 13.3098 69.8099 9.1798 69.8099 9.1798C69.8099 9.1798 65.8199 8.7998 63.8499 8.7998C61.8799 8.8098 58.3599 9.0198 58.3599 9.0198Z" fill="#2F2F2F"/>
<path d="M64.2002 19.9996C63.1002 19.9796 60.4702 23.5196 58.0102 24.7196C55.5502 25.9196 50.2702 26.1996 49.6302 28.4496C49.0002 30.6996 50.9702 33.3796 56.3202 32.6696C61.8602 31.9396 63.7102 27.5996 64.4102 27.5296C65.1102 27.4596 67.3702 32.5996 73.4202 33.0896C78.6302 33.5096 80.0602 29.0796 78.4202 27.5996C76.1702 25.5596 72.1602 25.0696 70.1802 24.1496C67.8402 23.0596 65.1902 20.0196 64.2002 19.9996Z" fill="#2F2F2F"/>
</svg>
