<svg width="32" height="40" viewBox="0 0 32 40" fill="none" xmlns="http://www.w3.org/2000/svg">
<path d="M8.39343 18.9873L8.65573 12.2146L9.99451 10.9659C9.99451 10.9659 10.9996 5.84178 12.5811 3.63851C14.1627 1.43523 15.4535 0.864197 16.3157 0.434659C17.1779 0.0051215 19.836 -0.277868 19.836 0.434659C19.836 1.14719 18.6166 2.07196 17.8973 3.20897C17.1779 4.34598 16.3871 5.98328 15.9586 7.40833C15.53 8.83339 15.0504 10.5364 15.0504 10.5364L16.6065 10.8901C16.6065 10.8901 17.4687 8.82833 18.2595 7.76207C19.0503 6.6958 20.1625 5.23538 21.5298 4.20449C22.6879 3.33025 24.295 2.42569 26.0908 2.42569C27.8867 2.42569 30.259 2.92598 30.0396 4.23986C29.9223 4.95744 28.5652 4.62897 27.203 5.51836C25.5449 6.59979 23.7542 8.39879 22.4277 11.4207C21.1012 14.4426 20.6318 15.7616 20.6318 15.7616L8.39343 18.9873Z" fill="#19E65F"/>
<path d="M8.07376 33.5377C8.07376 33.5377 11.0048 35.3705 12.2989 35.4363C14.2887 35.5427 17.2197 34.3781 19.0561 32.3833C20.8925 30.3884 22.4066 27.4822 22.1406 23.9381C21.9104 20.8851 20.8567 19.7661 20.8567 19.7661C20.8567 19.7661 22.693 21.5483 25.358 21.3357C28.0231 21.123 30.1817 19.518 31.0103 17.913C31.6651 16.6473 32.2687 15.098 31.8748 14.8144C31.4809 14.5309 30.1561 14.8144 30.1561 14.8144L25.1381 17.0574L16.5343 17.6295L7.53155 30.353L8.07376 33.5377ZM1.158 13.2955C0.799939 13.5385 1.33704 15.1486 2.60049 16.1106C3.86395 17.0726 5.65938 17.3561 5.65938 17.3561L8.32441 13.7562C8.32441 13.7562 1.84344 12.8297 1.158 13.2955Z" fill="#3AE619"/>
<path d="M10.3428 14.6632C10.6924 14.865 11.412 12.7581 16.0134 12.7925C21.081 12.827 23.7516 15.2194 24.1469 15.2539C24.5371 15.2883 27.2482 15.2539 28.1047 15.1849C28.9611 15.116 30.4611 14.4564 30.4256 14.9437C30.3901 15.4311 29.8175 18.0992 27.2888 18.7883C24.755 19.4824 20.4779 17.9909 19.657 17.9219C18.836 17.853 18.1215 17.9219 18.1925 19.1329C18.2634 20.3439 8.88331 25.8228 8.88331 25.8228C8.88331 25.8228 2.0218 22.7166 1.91538 22.3326C1.80896 21.9536 2.57923 20.9444 3.21268 19.9993C4.01336 18.7982 4.42383 17.4691 4.85458 16.775C5.28026 16.0809 5.95931 15.18 5.95931 15.18C5.95931 15.18 4.62654 15.2834 3.74985 14.9142C3.1468 14.6631 1.6468 13.6885 1.57585 13.3439C1.50491 12.9993 3.25322 13.3783 4.67721 13.2405C6.10627 13.1027 8.77689 11.6456 8.77689 11.6456C8.77689 11.6456 9.66878 12.3397 9.91709 12.9993C10.1654 13.6589 10.1654 14.5598 10.3428 14.6632Z" fill="#1FA3E0"/>
<path d="M3.92453 31.2064C3.92453 31.2064 3.50038 32.7775 3.75173 34.4906C3.95072 35.8337 4.99277 37.1312 5.17604 37.5924C5.35932 38.0536 5.69445 39.1281 5.6578 39.4828C5.62114 39.8376 6.12384 39.9238 6.23381 39.6602C6.36995 39.3409 6.22333 38.8949 6.60036 38.9811C7.01927 39.0774 6.60036 39.863 7.13971 39.8832C7.70525 39.9086 7.32299 39.1686 7.73143 39.1686C8.16082 39.1686 7.77856 40.015 8.39646 39.9998C8.962 39.9897 8.43311 39.2497 8.97247 39.2649C9.41233 39.275 9.04578 40.0505 9.65844 39.9643C10.0041 39.9187 9.60084 39.123 10.0512 39.0267C10.4439 38.9456 10.2345 39.7413 10.69 39.5741C10.9833 39.4676 11.0828 38.7277 10.9728 37.8711C10.8628 37.0146 10.5329 35.8033 10.3444 34.8251C10.1611 33.852 9.95169 32.813 9.94121 31.8855C9.93074 30.958 9.91503 29.8734 9.91503 29.8734L3.92453 31.2064Z" fill="#3AE619"/>
<path d="M10.395 23.1407C10.6734 23.1662 11.7265 21.9927 12.2024 21.1559C12.6783 20.3191 13.9389 18.472 15.7918 18.2577C17.6954 18.0383 18.8091 19.0486 19.2597 20.6303C19.6749 22.0896 19.285 23.7683 17.3815 24.6765C15.5488 25.5541 14.84 25.2021 13.2959 25.6562C12.4758 25.896 11.205 26.6154 11.1342 26.7073C11.0633 26.8042 11.5544 30.2432 8.85595 31.7331C6.59801 32.9781 3.13009 32.4985 1.34803 30.2483C-0.606157 27.7788 -0.241645 24.0693 1.20628 22.2733C2.63901 20.4976 4.36537 19.8496 6.90683 20.5997C9.75204 21.4416 10.1317 23.1152 10.395 23.1407Z" fill="#85CDEE"/>
<path d="M17.8361 22.1664C17.8361 23.1899 17.1766 24.1239 15.8777 24.1488C14.7651 24.1686 14.3321 23.2594 14.2969 22.236C14.2516 20.9293 15.198 20.2735 16.1395 20.2537C17.3628 20.2288 17.8361 21.143 17.8361 22.1664ZM2.83357 24.7499C2.83357 24.7499 4.67616 23.7513 4.90774 23.6321C5.13932 23.5128 5.73842 23.2992 6.06062 23.791C6.37778 24.2829 5.86428 24.7201 5.45649 24.894C5.0487 25.0679 3.33197 26.1013 3.33197 26.1013C3.33197 26.1013 3.13563 27.3781 3.31184 27.5172C3.78507 27.8898 4.49995 28.0935 5.08394 28.0438C5.66793 27.9892 6.1311 27.7457 6.3073 27.711C6.48351 27.6762 6.98191 27.6563 7.08763 28.0091C7.19336 28.3568 6.94164 28.7642 6.50364 28.9729C5.98007 29.2163 5.45649 29.4747 4.57044 29.3207C3.88072 29.2014 3.33197 29.0424 3.00977 28.8288C2.69261 28.6201 2.3553 28.2326 2.3553 28.2326C2.3553 28.2326 1.87703 28.8089 1.43401 28.794C0.990981 28.7742 0.422095 28.4959 0.406991 28.4463C0.386854 28.3916 -0.197136 27.9395 0.0696869 27.4476C0.33651 26.9558 0.935602 27.6215 1.30815 27.6762C1.68069 27.7308 1.91228 27.4824 1.94752 27.3632C1.98276 27.239 1.96765 25.8777 1.96765 25.8777C1.96765 25.8777 1.17222 24.8642 0.990981 24.6903C0.814777 24.5164 0.351613 23.9401 0.829881 23.5873C1.30815 23.2346 1.62531 23.5873 1.75117 23.6917C1.87703 23.796 2.83357 24.7499 2.83357 24.7499Z" fill="#151313"/>
</svg>
