<svg width="128" height="128" viewBox="0 0 128 128" fill="none" xmlns="http://www.w3.org/2000/svg">
<path d="M14.72 40.4799C14.72 40.4799 3.74 59.7699 4.72 76.2399C5.7 92.7099 10.07 96.79 20.49 101.72C30.91 106.65 31.05 52.1699 31.05 52.1699L14.72 40.4799ZM112.84 37.95L98.39 54C98.39 54 100.74 102.85 103.13 103.27C105.52 103.69 117.63 98.4799 121.43 90.7399C125.23 82.9999 123.57 70.04 122.7 65.54C121.01 56.81 112.84 37.95 112.84 37.95Z" fill="#FFD2B1"/>
<path d="M64.23 8.80997C53.81 8.67997 44.15 12.05 44.15 12.05C44.15 12.05 26.69 -0.620031 14.86 9.50997C0.0899997 22.18 13.17 40.76 14.3 42.03C15.43 43.3 20.49 55.26 20.49 55.26C20.49 55.26 17.39 67.37 17.25 75.81C17.05 87.65 19.64 101.34 19.64 101.34C19.64 101.34 24.57 103.55 29.07 105.09C32.69 106.33 34.98 106.64 36.25 107.62C37.52 108.61 45.68 120.01 55.26 121.56C63.71 122.93 77.22 121.98 84.54 114.24C90.15 108.31 91.3 106.78 92.28 106.22C93.27 105.66 105.61 102.89 105.61 102.89C105.61 102.89 109.88 82.15 109.88 73.14C109.88 64.13 108.75 56.95 108.75 56.95L113.54 44.56C113.54 44.56 129.03 24.71 114.81 12.6C101.72 1.44997 86.94 13.44 86.94 13.44C86.94 13.44 75.49 8.94997 64.23 8.80997Z" fill="#FFC701"/>
<path d="M19.08 16.4101C27.53 9.07007 34.71 16.2701 34.71 16.9701C34.71 17.3101 29.79 20.2001 25.84 23.8701C21.64 27.7701 18.39 32.4601 17.96 32.4601C17.11 32.4601 11.62 22.8901 19.08 16.4101ZM109.47 18.3801C104.27 13.5901 95.81 17.6801 95.53 18.3801C95.39 18.7301 100.03 21.9301 103.55 25.4201C107.2 29.0401 110.3 33.0901 110.59 33.1601C111.15 33.3001 116.5 24.8601 109.47 18.3801Z" fill="#FF6011"/>
<path d="M39.78 87.3601C39.78 87.3601 39.49 115.95 62.59 115.23C89.76 114.39 86.1 88.6201 86.1 88.6201L39.78 87.3601Z" fill="#FFD2B1"/>
<path d="M63.43 81.1699C63.43 81.1699 44.85 90.8799 44.99 90.3199C45.06 90.0499 49.62 93.5699 54.37 97.3199C59.56 101.42 73.13 98.4599 73.13 98.4599L82.02 90.4499L63.43 81.1699Z" fill="#FEA7A5"/>
<path d="M64.56 64.1301C64.56 64.1301 42.04 53.2901 34.43 63.8501C26.82 74.4101 34.43 85.2501 39.78 87.3601C45.13 89.4701 53.58 96.7901 53.58 96.7901C53.58 96.7901 54.99 93.8301 54.85 92.4301C54.71 91.0201 53.72 86.6601 53.72 86.6601L63.43 81.1701L71.31 88.3501C71.31 88.3501 70.18 95.5301 70.75 96.3701C71.32 97.2101 75.68 95.3801 75.68 95.3801L77.93 88.3401C77.93 88.3401 83.33 88.0101 86.85 87.5901C90.37 87.1701 97.78 82.2901 96.94 73.7001C96.1 65.1101 88.35 60.1901 82.44 60.3301C76.52 60.4701 64.56 64.1301 64.56 64.1301Z" fill="white"/>
<path d="M90.88 86.6601C90.3 85.2201 80.74 84.8301 74.55 81.1701C68.05 77.3301 68.5 72.8601 68.5 72.8601C68.5 72.8601 73.18 70.4701 77.37 67.3701C81.56 64.2701 85.16 60.5301 83.99 58.5001C81.22 53.7101 72.45 60.0501 64.14 59.6301C56.11 59.2201 45.53 54.3501 43.73 56.9601C41.83 59.7101 45.58 63.9801 50.07 67.2401C54.56 70.5001 59.78 72.7301 59.78 72.7301C59.78 72.7301 59.78 78.3601 52.6 81.4601C44.58 84.9201 37.02 84.7001 36.55 85.1201C35.14 86.3901 37.08 87.7801 38.66 88.3601C40.21 88.9201 41.9 88.9201 41.9 88.9201C41.9 88.9201 43.17 99.9001 63.44 100.32C83.15 100.73 83.85 90.4701 83.85 90.4701C83.85 90.4701 85.82 90.0501 87.69 89.3601C89.56 88.6701 91.3 87.7101 90.88 86.6601ZM63.15 95.6701C51.47 95.5301 47.52 90.1801 47.52 90.1801C47.52 90.1801 51.88 90.1801 54.98 89.4801C58.81 88.6101 63.29 84.8301 63.29 84.8301C63.29 84.8301 66.94 88.6701 70.05 89.7601C72.87 90.7501 78.07 91.3101 78.07 91.3101C78.07 91.3101 74.83 95.8101 63.15 95.6701ZM47.94 41.6101C47.94 45.0701 44.96 47.9401 41.46 48.5101C38.01 49.0701 34.84 46.0501 34.98 41.4701C35.09 38.0101 38.06 35.8401 41.6 35.8401C45.14 35.8401 47.94 37.8801 47.94 41.6101ZM86.94 48.2301C83.66 47.1201 81.69 44.3101 82.52 40.3301C83.42 35.9801 86.46 34.2401 90.74 35.8401C93.98 37.0501 95.5 41.1501 94.47 44.5301C93.56 47.5201 90.47 49.4201 86.94 48.2301ZM102.05 41.1401C100.68 42.6901 96.85 41.4801 96.32 43.5801C95.57 46.5801 103.55 49.2101 106.46 45.3601C109.37 41.5101 106.09 32.9301 103.36 34.7501C101.68 35.8801 103.46 39.5401 102.05 41.1401Z" fill="#2F2F2F"/>
<path d="M109.47 38.3201C108.41 38.7501 109.66 42.1701 110.13 44.8001C110.6 47.4301 110.13 51.8401 108.63 53.6201C107.13 55.4001 105.72 54.9301 105.72 54.9301C105.72 54.9301 102.16 48.5101 100.28 51.0801C98.5 53.5201 102.34 53.9001 101.88 58.6801C101.41 63.4701 98.1 65.8501 101.5 66.5601C103.28 66.9401 105.07 63.6501 105.07 63.6501C105.07 63.6501 110.89 63.7401 113.8 56.8901C115.99 51.7401 114.64 47.8801 113.61 43.9401C112.58 40.0001 109.93 38.1401 109.47 38.3201ZM110.03 69.2001C106.46 73.1401 101.21 77.5501 100.83 78.6801C100.45 79.8101 100.45 82.4301 105.62 81.5901C110.79 80.7501 115.66 75.9601 117.21 73.0001C119.24 69.1301 119.98 62.6301 118.85 60.2801C117.72 57.9301 115.66 59.0601 115 61.0301C114.35 63.0101 111.39 67.7001 110.03 69.2001ZM28.56 38.7901C28.47 36.4401 30.81 34.3801 29.4 33.1601C27.53 31.5401 22.45 35.9801 24.05 41.3301C25.65 46.6801 31.97 46.0201 33.01 45.1801C34.75 43.7701 33.47 42.5201 32.54 42.0801C31.1 41.4001 28.65 41.0801 28.56 38.7901Z" fill="#2F2F2F"/>
<path d="M23.87 52.59C23.87 52.59 26.03 49.02 27.81 50.53C29.59 52.03 25.65 54.5701 26.12 58.8801C26.59 63.1901 29.03 66.3901 27.81 67.6101C26.12 69.3001 23.49 65.73 22.65 64.42C21.81 63.11 21.24 61.32 21.24 61.32C21.24 61.32 15.42 56.53 14.39 50.62C13.59 46.05 14.86 40.77 17.67 38.23C19.59 36.5 20.56 36.5201 21.33 37.2901C22.46 38.4201 19.45 42.9201 20.49 47.3301C21.52 51.7501 23.87 52.59 23.87 52.59ZM19.84 69.67C17.26 66.45 12.66 58.9 10.92 59.53C8.86 60.28 9.23 70.06 14.11 75.67C20.3 82.8 28.28 82.71 29.22 79.8C29.91 77.66 24.34 75.3 19.84 69.67ZM58.36 9.02005C58.36 9.02005 59.06 14.09 53.5 15.71C47.94 17.33 44.56 15.27 44.77 19.79C44.88 22.04 47.28 23.16 49.7 23.31C52.12 23.46 54.52 22.56 55.82 22.04C58.64 20.91 63.14 15.35 63.91 15.21C64.68 15.07 67.08 19.01 71.93 21.12C74.15 22.08 76.97 22.89 79.13 22.6C81.4 22.3 83.3 20.77 83.12 17.81C83 15.57 79.76 16.69 74.41 15C69.06 13.31 69.81 9.18005 69.81 9.18005C69.81 9.18005 65.82 8.80005 63.85 8.80005C61.88 8.81005 58.36 9.02005 58.36 9.02005Z" fill="#2F2F2F"/>
<path d="M64.2 20.0001C63.1 19.9801 60.47 23.5201 58.01 24.7201C55.55 25.9201 50.27 26.2001 49.63 28.4501C49 30.7001 50.97 33.3801 56.32 32.6701C61.86 31.9401 63.71 27.6001 64.41 27.5301C65.11 27.4601 67.37 32.6001 73.42 33.0901C78.63 33.5101 80.06 29.0801 78.42 27.6001C76.17 25.5601 72.16 25.0701 70.18 24.1501C67.84 23.0601 65.19 20.0201 64.2 20.0001Z" fill="#2F2F2F"/>
</svg>
